<?xml version="1.0" encoding="UTF-8"?>
<svg id="Layer_2" data-name="Layer 2" xmlns="http://www.w3.org/2000/svg" viewBox="0 0 409.72 168.28">
  <defs>
    <style>
      .cls-1 {
        fill: #824737;
      }

      .cls-1, .cls-2, .cls-3 {
        stroke: #000;
      }

      .cls-1, .cls-2, .cls-3, .cls-4 {
        stroke-miterlimit: 10;
      }

      .cls-2 {
        fill: #fe9606;
      }

      .cls-3, .cls-5 {
        fill: #fffff2;
      }

      .cls-4 {
        fill: none;
        stroke: #220501;
        stroke-width: 2px;
      }

      .cls-6 {
        fill: #3a1802;
      }

      .cls-6, .cls-7, .cls-5 {
        stroke-width: 0px;
      }

      .cls-7 {
        fill: #f44700;
      }
    </style>
  </defs>
  <g id="Layer_10" data-name="Layer 10">
    <path class="cls-5" d="M78.27,51.82c-1.91,5.08-13.34,6.03-17.23,2.59.08-.37,0-12.12,0-12.12-4.44-6.53-11.1-10.25-17.38-9.39-5.98.83-12.29,5.91-13.04,11.6-1.91,11.44,38.12,33.35,45.74,47.65,12.39,20.97-.32,37.42-.32,37.42,0,0-6.35,10.23-22.13,15.62-29.96,8.91-48.07-14.92-48.07-29.21s5.72-24.78,16.2-27.64c10.48-2.86,18.11,8.58,18.11,12.39-4.76,3.81-14.29,8.58-10.48,16.2.95,12.39,30.49,15.25,29.54-6.67-.95-18.11-40.98-31.45-49.55-54.32C2.03,29.27,28.71,10.21,45.87,13.07c13.34,1.91,14.29,6.67,19.06,6.67,0-3.81,2.86-3.81,2.86-3.81h7.79c1.74,0,2.7,0,2.7,5.72v30.18Z"/>
    <path class="cls-5" d="M87.8,40.7c3.81,3.81,10.48-8.58,12.39-12.39s1.91-11.44-3.81-13.34c-3.81-1.91-9.53.95-10.48,3.81s-.95,5.72,3.81,12.39c-3.81,7.62-1.91,9.53-1.91,9.53Z"/>
    <path class="cls-5" d="M117.5,106.51c.01,2.86-13.33,2.91-13.34.05l-.33-89.58s-.96-1.9,3.8-1.92l10.28-.04,13.68,36.16,13.21-35.31,12.39-.05c1.91,0,2.86-.01,2.87,1.9.01,2.86.31,84.46.33,87.49s-14.28,4.04-14.29.23.27-43.65.05-43.72-13.29,36.14-13.42,36.14-14.44-37.05-15.39-37.11.17,45.74.17,45.74Z"/>
    <path class="cls-5" d="M215.47,7.23s-42.88,20.01-45.74,44.79c-2.86,24.78,0,37.17,7.62,47.65-3.81,7.62,0,10.48,5.72,12.39.95,3.81.95,7.62.95,7.62,0,0,58.04,0,58.04,0v-7.02s8.66-3.47,8.66-7.28c0-1.91-.95-4.49,0-4.63s18.11-24.92,8.58-50.65c-9.53-30.49-26.68-26.68-43.84-42.88Z"/>
    <path class="cls-5" d="M327.94,99.69c-.95-.86-15.25-27.54-15.25-27.54,0,0,14.29-8.58,14.29-19.06s2.86-16.2-10.48-30.49c-5.72-7.62-17.68-6.07-17.41-6.37.26-.3-29.28,0-29.28,0,0,0-6.67,3.51,0,10.18v78.16s0,1.89,2.86,1.89h13.9s3.25,0,3.25-1.91v-30.33h4.76l20.01,37.96s3.88,3.79,7.66,0c3.79-3.79,5.68-6.67,5.68-6.67,0,0,.95-4.96,0-5.81ZM300.65,61.85h-11.78v-31.63h10.4c14.38,0,13.43,31.63,1.38,31.63Z"/>
    <path class="cls-5" d="M335.17,16.09c.28-.28-8.19,4.6,1.34,11.27,0,0,.62,20.97.84,35.26.11,0-7.51,1.91-7.51,7.62.95,6.67,7.51,7.43,7.51,7.43-.84,6.86-.84,51.65-.84,51.65,0,0-2.97,1.55-2.91,6.49-1.85,5.9,74.49,13.64,75.34,12.57s0-13.11,0-16.56c-1.91-3.45-45.74-7.26-52.41-7.26v-35.26s33.35-.95,40.02-.95,6.67-17.15,0-17.15-40.98-.95-40.98-.95v-36.21h48.6s12.45-12.08.03-17.95c-13.37-.16-69.03.01-69.03.01Z"/>
  </g>
  <g id="Layer_6" data-name="Layer 6">
    <path class="cls-6" d="M73.53,45.79c-1.91,5.08-13.34,6.03-17.23,2.59.08-.37,0-12.12,0-12.12-4.44-6.53-11.1-10.25-17.38-9.39-5.98.83-12.29,5.91-13.04,11.6-1.91,11.44,38.12,33.35,45.74,47.65,12.39,20.97-.32,37.42-.32,37.42,0,0-6.35,10.23-22.13,15.62C19.21,148.07,1.11,124.25,1.11,109.95s5.72-24.78,16.2-27.64c10.48-2.86,18.11,8.58,18.11,12.39-4.76,3.81-14.29,8.58-10.48,16.2.95,12.39,30.49,15.25,29.54-6.67-.95-18.11-40.98-31.45-49.55-54.32C-2.7,23.24,23.98,4.18,41.13,7.03c13.34,1.91,14.29,6.67,19.06,6.67,0-3.81,2.86-3.81,2.86-3.81h7.79c1.74,0,2.7,0,2.7,5.72v30.18Z"/>
    <path class="cls-6" d="M83.06,34.67c3.81,3.81,10.48-8.58,12.39-12.39s1.91-11.44-3.81-13.34c-3.81-1.91-9.53.95-10.48,3.81s-.95,5.72,3.81,12.39c-3.81,7.62-1.91,9.53-1.91,9.53Z"/>
    <path class="cls-6" d="M112.77,100.48c.01,2.86-13.33,2.91-13.34.05l-.33-89.58s-.96-1.9,3.8-1.92l10.28-.04,13.68,36.16,13.21-35.31,12.39-.05c1.91,0,2.86-.01,2.87,1.9.01,2.86.31,84.46.33,87.49s-14.28,4.04-14.29.23.27-43.65.05-43.72-13.29,36.14-13.42,36.14-14.44-37.05-15.39-37.11.17,45.74.17,45.74Z"/>
    <path class="cls-6" d="M210.41.74s-42.88,20.01-45.74,44.79c-2.86,24.78,0,37.17,7.62,47.65-3.81,7.62,0,10.48,5.72,12.39.95,3.81.95,7.62.95,7.62,0,0,58.04,0,58.04,0v-7.02s8.66-3.47,8.66-7.28c0-1.91-.95-4.49,0-4.63s18.11-24.92,8.58-50.65c-9.53-30.49-26.68-26.68-43.84-42.88Z"/>
    <path class="cls-6" d="M323.2,93.66c-.95-.86-15.25-27.54-15.25-27.54,0,0,14.29-8.58,14.29-19.06s2.86-16.2-10.48-30.49c-5.72-7.62-17.68-6.07-17.41-6.37.26-.3-29.28,0-29.28,0,0,0-6.67,3.51,0,10.18v78.16s0,1.89,2.86,1.89h13.9s3.25,0,3.25-1.91v-30.33h4.76l20.01,37.96s3.88,3.79,7.66,0c3.79-3.79,5.68-6.67,5.68-6.67,0,0,.95-4.96,0-5.81ZM295.91,55.82h-11.78v-31.63h10.4c14.38,0,13.43,31.63,1.38,31.63Z"/>
    <path class="cls-6" d="M330.44,10.06c.28-.28-8.19,4.6,1.34,11.27,0,0,.62,20.97.84,35.26.11,0-7.51,1.91-7.51,7.62.95,6.67,7.51,7.43,7.51,7.43-.84,6.86-.84,51.65-.84,51.65,0,0-2.97,1.55-2.91,6.49-1.85,5.9,74.49,13.64,75.34,12.57s0-13.11,0-16.56c-1.91-3.45-45.74-7.26-52.41-7.26v-35.26s33.35-.95,40.02-.95,6.67-17.15,0-17.15-40.98-.95-40.98-.95V28h48.6s12.45-12.08.03-17.95c-13.37-.16-69.03.01-69.03.01Z"/>
    <path class="cls-5" d="M321.78,127.25c-57.45-11.91-192.77-9.05-231.84.48-2.86.95-1.91,10.48-1.91,10.48-2.86,2.86,46.69-3.81,53.37-3.81.95,4.76,0,18.11,0,18.11,8.58,2.86,41.93,10.59,66.23,15.78,24.3-4.34,63.37-15.78,63.37-15.78v-18.11s42.03,1.99,54.37,4.81c-.05-7.67.5-11.48-3.59-11.95Z"/>
  </g>
  <g id="Layer_8" data-name="Layer 8">
    <g>
      <path class="cls-6" d="M320.04,122.22c-57.45-11.91-192.77-9.05-231.84.48-2.86.95-1.91,10.48-1.91,10.48-2.86,2.86,46.69-3.81,53.37-3.81.95,4.76,0,18.11,0,18.11,8.58,2.86,41.93,10.59,66.23,15.78,24.3-4.34,63.37-15.78,63.37-15.78v-18.11s42.03,1.99,54.37,4.81c-.05-7.67.5-11.48-3.59-11.95Z"/>
      <path class="cls-6" d="M219.58,33.1l12.04,15.27-.95,15.25-9.53,11.44-12.39,2.86-13.34-4.76-9.53-14.29,8.58-20.01,7.62-8.58.95-3.29v-8.15s.95-4.29,2.86-6.19,0,.95.95,4.29c-.95,3.81,3,6.65,3,6.65l9.73,9.52Z"/>
      <path class="cls-6" d="M211.6,20.25c-2.12-1.31,1.16-6.32-.12-10.51-8.45,6.7-4.43,12.77-1.15,14.9s19.59,17.88,18.64,29.31c.9,8.07-5.8,14.46-10.57,19.15,2.51-4.09,3.69-13.79.83-18.55-2.12,12.04-8.58,7.62-10.48,12.39s-3.92-8.7-4.23-11.75c-.54-5.4-2.87,2.68-4.14,9.24-.95,4.76.95,9.53.95,9.53,0,0-13.34-7.62-13.34-16.2-1.82-8.46,13.55-21.57,15.25-28.59s-.95-13.34.95-15.25c-.21-1.31,3.07-5.37-1.91-.95s0,17.15-4.97,20.61-13.55,13.94-13.34,24.78c3.6,15.85,10.69,16.55,10.69,16.55,14.08,5.37,26.68,1.91,26.68,1.91,12.18-10.84,12.18-15.6,11.23-26.08-.54-10.93-13.34-20.97-20.97-30.49Z"/>
      <path class="cls-6" d="M190.85,103.51v3.81l-10.48-1.91v-.38s-7.62-3.43-7.62-5.34c0,0,0-3.81,1.91-4.76l16.2,8.58Z"/>
      <path class="cls-6" d="M234.68,106.37c.09.09.15.19.22.32l-7.84-.32.26-4.05,14.04-7.61,1.91,3.09c.95,4.76,0,3.81-8.58,8.58Z"/>
      <path class="cls-6" d="M241.35,94.7l-14.03,7.62-.26,4.05,7.84.32c.7,1.41.49,5.4.49,5.4h-55.02v-6.68l10.48,1.91v-3.81l-16.2-8.58s3.81-14.29,13.34-19.06h6.67c14.29,6.67,26.68,1.91,26.68,1.91,7.63-.95,7.63-3.81,20.01,13.34.96,2.86,0,3.58,0,3.58Z"/>
    </g>
    <g>
      <path class="cls-6" d="M320.04,122.22c-57.45-11.91-192.77-9.05-231.84.48-2.86.95-1.91,10.48-1.91,10.48-2.86,2.86,46.69-3.81,53.37-3.81.95,4.76,0,18.11,0,18.11,8.58,2.86,41.93,10.59,66.23,15.78,24.3-4.34,63.37-15.78,63.37-15.78v-18.11s42.03,1.99,54.37,4.81c-.05-7.67.5-11.48-3.59-11.95Z"/>
      <path class="cls-7" d="M219.58,33.1l12.04,15.27-.95,15.25-9.53,11.44-12.39,2.86-13.34-4.76-9.53-14.29,8.58-20.01,7.62-8.58.95-3.29v-8.15s.95-4.29,2.86-6.19,0,.95.95,4.29c-.95,3.81,3,6.65,3,6.65l9.73,9.52Z"/>
      <path class="cls-5" d="M211.6,20.25c-2.12-1.31,1.16-6.32-.12-10.51-8.45,6.7-4.43,12.77-1.15,14.9s19.59,17.88,18.64,29.31c.9,8.07-5.8,14.46-10.57,19.15,2.51-4.09,3.69-13.79.83-18.55-2.12,12.04-8.58,7.62-10.48,12.39s-3.92-8.7-4.23-11.75c-.54-5.4-2.87,2.68-4.14,9.24-.95,4.76.95,9.53.95,9.53,0,0-13.34-7.62-13.34-16.2-1.82-8.46,13.55-21.57,15.25-28.59s-.95-13.34.95-15.25c-.21-1.31,3.07-5.37-1.91-.95s0,17.15-4.97,20.61-13.55,13.94-13.34,24.78c3.6,15.85,10.69,16.55,10.69,16.55,14.08,5.37,26.68,1.91,26.68,1.91,12.18-10.84,12.18-15.6,11.23-26.08-.54-10.93-13.34-20.97-20.97-30.49Z"/>
      <path class="cls-1" d="M190.85,103.51v3.81l-10.48-1.91v-.38s-7.62-3.43-7.62-5.34c0,0,0-3.81,1.91-4.76l16.2,8.58Z"/>
      <path class="cls-1" d="M234.68,106.37c.09.09.15.19.22.32l-7.84-.32.26-4.05,14.04-7.61,1.91,3.09c.95,4.76,0,3.81-8.58,8.58Z"/>
      <path class="cls-2" d="M241.35,94.7l-14.03,7.62-.26,4.05,7.84.32c.7,1.41.49,5.4.49,5.4h-55.02v-6.68l10.48,1.91v-3.81l-16.2-8.58s3.81-14.29,13.34-19.06h6.67c14.29,6.67,26.68,1.91,26.68,1.91,7.63-.95,7.63-3.81,20.01,13.34.96,2.86,0,3.58,0,3.58Z"/>
    </g>
  </g>
  <g id="Outline">
    <path class="cls-4" d="M73.42,46.62c-1.91,5.08-13.34,6.03-17.23,2.59.08-.37,0-12.12,0-12.12-4.44-6.53-11.1-10.25-17.38-9.39-5.98.83-12.29,5.91-13.04,11.6-1.91,11.44,38.12,33.35,45.74,47.65,12.39,20.97-.32,37.42-.32,37.42,0,0-6.35,10.23-22.13,15.62C19.11,148.9,1,125.08,1,110.78s5.72-24.78,16.2-27.64,18.11,8.58,18.11,12.39c-4.76,3.81-14.29,8.58-10.48,16.2.95,12.39,30.49,15.25,29.54-6.67-.95-18.11-40.98-31.45-49.55-54.32C-2.81,24.06,23.87,5.01,41.02,7.86c13.34,1.91,14.29,6.67,19.06,6.67,0-3.81,2.86-3.81,2.86-3.81h7.79c1.74,0,2.7,0,2.7,5.72v30.18Z"/>
    <path class="cls-4" d="M82.95,35.5c3.81,3.81,10.48-8.58,12.39-12.39s1.91-11.44-3.81-13.34c-3.81-1.91-9.53.95-10.48,3.81s-.95,5.72,3.81,12.39c-3.81,7.62-1.91,9.53-1.91,9.53Z"/>
    <path class="cls-4" d="M112.66,101.31c.01,2.86-13.33,2.91-13.34.05l-.33-89.58s-.96-1.9,3.8-1.92,10.28-.04,10.28-.04l13.68,36.16,13.21-35.31s10.48-.04,12.39-.05,2.86-.01,2.87,1.9c.01,2.86.31,84.46.33,87.49s-14.28,4.04-14.29.23.27-43.65.05-43.72-13.29,36.14-13.42,36.14-14.44-37.05-15.39-37.11.17,45.74.17,45.74Z"/>
    <path class="cls-4" d="M210.65,1.19s-42.88,20.01-45.74,44.79,0,37.17,7.62,47.65c-3.81,7.62,0,10.48,5.72,12.39.95,3.81.95,7.62.95,7.62h58.04v-7.02s8.66-3.47,8.66-7.28-.95-4.49,0-4.63,18.11-24.92,8.58-50.65c-9.53-30.49-26.68-26.68-43.84-42.88Z"/>
    <path class="cls-4" d="M264.97,21.21v78.16s0,1.89,2.86,1.89h13.91s3.25,0,3.25-1.91v-30.34h4.76l20.01,37.96s3.87,3.79,7.66,0,5.68-6.67,5.68-6.67c0,0,.95-4.96,0-5.81s-15.25-27.54-15.25-27.54c0,0,14.29-8.58,14.29-19.06s2.86-16.2-10.48-30.49c-5.72-7.62-17.68-6.07-17.42-6.37s-29.28,0-29.28,0c0,0-6.67,3.51,0,10.18Z"/>
    <path class="cls-4" d="M284.03,25.02v31.63s4.5,0,11.78,0c12.04,0,13-31.63-1.39-31.63.09,0-10.39,0-10.39,0Z"/>
    <path class="cls-4" d="M330.33,10.89c.28-.28-8.19,4.6,1.34,11.27,0,0,.62,20.97.84,35.26.11,0-7.51,1.91-7.51,7.62.95,6.67,7.51,7.43,7.51,7.43-.84,6.86-.84,51.65-.84,51.65,0,0-2.97,1.55-2.91,6.49-1.85,5.9,53.29,9.15,75.34,12.57v-16.56c-1.91-3.45-45.74-7.26-52.41-7.26v-35.26s33.35-.95,40.02-.95,6.67-17.15,0-17.15-40.98-.95-40.98-.95V28.83h48.6s12.45-12.08.03-17.95c-13.37-.16-69.03.01-69.03.01Z"/>
    <polygon class="cls-3" points="178.08 147 172.63 147 172.63 125.55 188.73 125.55 188.73 131.14 177.59 131.14 177.59 134.97 186.62 134.97 186.62 139.15 177.59 139.15 178.08 147"/>
    <path class="cls-3" d="M197.31,125.55h5.82v12.83c0,3.37,7.18,3.3,7.18,0v-12.83h5.1v13.87c0,9.95-18.11,10.36-18.11.63v-14.5Z"/>
    <polygon class="cls-3" points="223.25 145.09 223.25 126.67 225.56 126.67 237.33 136.34 237.33 125.55 243.13 125.55 243.13 147.13 238.74 147.13 228.22 136.61 228.22 145.09 223.25 145.09"/>
  </g>
</svg>