<?xml version="1.0" encoding="UTF-8"?>
<svg id="Layer_2" data-name="Layer 2" xmlns="http://www.w3.org/2000/svg" viewBox="0 0 369.28 560.99">
  <defs>
    <style>
      .cls-1 {
        fill: #f9f9f8;
      }

      .cls-1, .cls-2, .cls-3, .cls-4, .cls-5, .cls-6, .cls-7, .cls-8, .cls-9, .cls-10, .cls-11, .cls-12, .cls-13, .cls-14, .cls-15, .cls-16, .cls-17, .cls-18, .cls-19, .cls-20, .cls-21, .cls-22, .cls-23, .cls-24, .cls-25, .cls-26, .cls-27, .cls-28, .cls-29, .cls-30, .cls-31, .cls-32, .cls-33 {
        stroke-width: 0px;
      }

      .cls-2 {
        fill: #5e331a;
      }

      .cls-3 {
        fill: #4e1910;
      }

      .cls-4 {
        fill: #7d1114;
      }

      .cls-5 {
        fill: #4f291d;
      }

      .cls-6 {
        fill: #291816;
      }

      .cls-7 {
        fill: #a33323;
      }

      .cls-8 {
        fill: #3b2c27;
      }

      .cls-9 {
        fill: #58220e;
      }

      .cls-10 {
        fill: #380e07;
      }

      .cls-11 {
        fill: #1e1c16;
      }

      .cls-12 {
        fill: #cd6638;
      }

      .cls-13 {
        fill: #d89360;
      }

      .cls-14 {
        fill: #c87f4c;
      }

      .cls-15 {
        fill: #bf7967;
      }

      .cls-16 {
        fill: #c05732;
      }

      .cls-17 {
        fill: #a5502d;
      }

      .cls-18 {
        fill: #ae5926;
      }

      .cls-19 {
        fill: #af7650;
      }

      .cls-20 {
        fill: #b46a33;
      }

      .cls-21 {
        fill: #864734;
      }

      .cls-22 {
        fill: #925439;
      }

      .cls-23 {
        fill: #92441f;
      }

      .cls-24 {
        fill: #321710;
      }

      .cls-25 {
        fill: #8f6956;
      }

      .cls-26 {
        fill: #902511;
      }

      .cls-27 {
        fill: #6d2b1f;
      }

      .cls-28 {
        fill: #a06645;
      }

      .cls-29 {
        fill: #fdfcec;
      }

      .cls-30 {
        fill: #efbd90;
      }

      .cls-31 {
        fill: #eca974;
      }

      .cls-32 {
        fill: #f29380;
      }

      .cls-33 {
        fill: #e8d7c7;
      }
    </style>
  </defs>
  <g id="Layer_13" data-name="Layer 13">
    <g>
      <g>
        <path class="cls-29" d="M41.11,44.08c39.94-.73,281.08,2.94,295.67.61l-.31,478.29q-146.76-.46-293.51-.91c1.49-150.7,1.01-301.39.62-452.09-1.34-1.27-2.84-1.82-3.7-.3.02-6.07.2-12.21,0-18.28-.1-3.19-.31-7.12.62-7.31h.62Z"/>
        <g>
          <path class="cls-10" d="M2.16,524.42l-.58,8.4,4.05-2.03c-1.44,1.56-3.65,3.99-4.05,6.08-2.92,15.42,2.58-1.2,4.34-2.03,8.13-3.82,6.94,7.75,7.23,8.4,1.89,4.2,2.18-4.7,1.74-6.08.13.17,2.83,2.37,4.05,1.74h329.19c4,2.37,2.41.23,2.89-.58.03-.06.81.03,1.16,0-.36,3.16.21,4.44,2.89,5.79.82.41,1.42,1,2.31,1.16-.63,3.33,7.16,8.63,9.84,11.59-.12.49,1.23,1.02.29,1.74-6.61,2.71-21.58.1-26.03,1.16-.43.1-.29.77-.29,1.16H14.31c-.87.28-1.11-.49-1.74-.58-.6-.08-1.64-1.03-2.31-1.16-3.2-.63-6.31-.7-9.55-.58-.61-.43-.18-2.64-.29-3.48,4.56,2.41,14.22-15.37,8.39-16.22-2.33-.34-4.53,10.7-8.39,11.59-.29-8.64-.05-17.42,0-26.07.55-.08,1.26.13,1.74,0Z"/>
          <g>
            <path class="cls-13" d="M256.72,522.69c3.78,3.69,11.51,2.11,15.33,6.37q30.08-.29,60.17-.58c4.87,6.13,5.97,10.16,14.75,7.53.05.06,1.06.26,1.16,1.16,0,.65.94.51,0,1.74H18.94c-.07-.26-.53-1.12-.58-1.16.93-.7,2.08-1.51,2.89-2.32,2.67.66,2.45,1.7,2.6,1.74,10.15,2.69,182.87-2.65,210.01,0,7.12-7.39-10.37-6.5-15.04-6.95-.45-.04-.13-1.12-.58-1.16-9.43-.82-8.21,1.18-8.68,1.16-2.22-.1-1.25-1.14-1.74-1.16-5.19-.19-36.55.99-38.18,0-6.87-4.14,20.79-4.25,18.8-6.37,22.73.22,45.53.19,68.27,0Z"/>
            <path class="cls-31" d="M237.05,512.84c3.86.01,7.71-.01,11.57,0,1.93-.14.38.45.58,2.32-43.49.25-86.97,2.11-130.46,1.16-1.17,1.02-2.84.15-1.74,2.32,27.68-.19,55.35-.43,83.02-.58v2.9c-5.64.08-29.61-.54-31.53,0-6.72,1.9,12.1,1.66,19.96,1.74,1.99,2.12-25.67,2.24-18.8,6.37,1.64.99,32.99-.19,38.18,0,.48.02-.48,1.06,1.74,1.16.47.02-.76-1.97,8.68-1.16.45.04.13,1.12.58,1.16,4.67.45,22.17-.44,15.04,6.95-27.14-2.65-199.86,2.69-210.01,0-.15-.04.07-1.08-2.6-1.74,5.5-5.49,11.66-11.6,16.78-17.38.61-.68,1.15-1.61,1.74-2.32.47-.57,1.14-.94,1.74-1.74.09-.12,1.75-1.38,2.31-1.74,64.41,1.19,128.82.41,193.24.58Z"/>
            <path class="cls-13" d="M334.24,520.95c.04.07.46.18,1.16,1.16,1.32,1.86,2.21,2.19,2.31,2.32,2.84,3.7,5.09,5.55,5.79,6.37.73.87,2.58,4.06,3.47,5.21-8.79,2.62-9.88-1.4-14.75-7.53q-30.08.29-60.17.58c-3.82-4.26-11.55-2.69-15.33-6.37,25.85-.21,51.7-.68,77.53-1.74Z"/>
            <path class="cls-14" d="M332.51,519.21h.58c.25.7.81,1.07,1.16,1.74-25.83,1.06-51.68,1.52-77.53,1.74-22.73.19-45.54.22-68.27,0-7.86-.07-26.68.16-19.96-1.74,1.92-.54,25.89.08,31.53,0,44.16-.66,88.31-2,132.49-1.74Z"/>
            <path class="cls-13" d="M326.72,512.84c.45.11,2.38,1.84,2.89,2.32,1.14,1.07,1.94,2.8,2.89,4.06-44.17-.27-88.33,1.08-132.49,1.74v-2.9c42.91-.23,85.82-.33,128.73-1.16.8-.4-.14-1.59-.58-1.74-3.73-1.31-68.86-.06-78.97,0-.2-1.87,1.35-2.46-.58-2.32,11.16.04,73.49-1.12,78.1,0Z"/>
            <path class="cls-13" d="M249.2,515.15c10.11-.06,75.25-1.31,78.97,0,.43.15,1.38,1.34.58,1.74-42.91.83-85.82.93-128.73,1.16-27.68.15-55.35.39-83.02.58-1.1-2.17.57-1.3,1.74-2.32,43.49.96,86.98-.91,130.46-1.16Z"/>
            <path class="cls-13" d="M211.59,511.1c4.88,1.75,22.37-.4,25.17.58.44.15.29.76.29,1.16-64.41-.17-128.83.61-193.24-.58l.58-1.16h167.2Z"/>
            <path class="cls-19" d="M326.72,511.1v1.74c-4.62-1.12-66.94.04-78.1,0-3.86-.01-7.71.01-11.57,0,0-.4.15-1-.29-1.16-2.8-.98-20.28,1.17-25.17-.58h115.13Z"/>
          </g>
        </g>
        <path class="cls-1" d="M326.72,74.81c.04,33.03-.05,66.05,0,99.08.08,48.87.04,97.72,0,146.59-.03,35.15.02,70.3,0,105.45v85.17H44.39c-1.01-47.11-.65-94.25-.58-141.37.05-34.96,0-69.92,0-104.87,0-.19,0-.39,0-.58-.01-62.97.4-125.92.58-188.89.81-1.44,2.21-.92,3.47.29.37,143.31.81,286.61-.58,429.92q137.55.43,275.1.87l.29-454.83c2.01-.33,2.56-1.29,4.05-2.32v25.49Z"/>
      </g>
      <path class="cls-11" d="M326.72,48.73v.58c-1.49,1.02-2.04,1.99-4.05,2.32-13.68,2.22-239.69-1.28-277.12-.58,21.79.1,43.59-.49,65.38-.58,21.02-.08,42.03.23,63.06,0l148.98.58,2.02-2.32h1.74Z"/>
      <g>
        <g>
          <path class="cls-22" d="M16.09,247.47c-.33,19.72.55,39.32,0,59.1-.13,4.68.69,8.16-1.2,7.53-.18-2.71-.81-5.43-1.2-8.11-.75-5.04-2.36-4.36-2.41-4.64-.12-.64-.62-3.85-.6-4.06.06-.91,1.1-.38,1.2-.87.36-1.73-.88-2.52-.6-2.9.18-.24,6.6-1.43.9-2.61-4.2-.87-5.42,5.7-2.71,6.37-2.16.82-3.88,4.78-4.21,5.79-.76,2.28-2.76,3.02.6,4.92-5.13,3.9,3.06,23.71,2.41,10.14,4.21.06,3.45-4.35,2.41-7.53.36-.29.85-.85,1.2-1.16,4.41,10.71-1.71,32.16-1.81,15.93-12.51-3.84-.81-.55,0,2.9.52,2.2-.63,4.49-.6,6.66-.86.12-1.09,1.31-2.11,1.16-1.56-.26.67-9.55-5.12-7.53-.97.34-.29,1.47-1.81,1.16,0-9.08-.03-18.15,0-27.23,11.54-3.85,5.43-18.74,8.43-11.3,1.27-4.62,1.9-7.97,6.02-11.01.31-.86-1.23-1.3-1.2-2.03.03-.81.09-.89,0-1.74-.69-6.84-2.02-13.65-1.81-20.57h-1.2c-.44.74.85,15.13,1.2,17.09-1.5-.32-2.39.49-3.61.58,1.42-5.69-.02-9.6,0-10.43,0-.07,1.19-.44,1.2-.87.11-3.31-.62-3.03-.6-3.19.42-4.99,1.96-23.93,7.22-11.59Z"/>
          <path class="cls-22" d="M17.29,369.14c.11,9.37,3.21,6.12-6.32,0-.62-.4.02-1.31-.6-1.74-.35,0-.2,1.47-.9,2.32-.13.15-1.52-.3-1.81.29l-1.81,10.14c-1.11,4.01-2.92,7.29-1.2,11.59.17.43-.31,1.53.3,1.74,10.34-1.72,5.61-12.24,11.13-6.95,0,.19,0,.39,0,.58-3.74-2.22-3.97,5.25-4.81,7.82.24.44,1.92-.13,3.61,2.03-9.13-3.35,1.79,7.67,2.41,10.72.68,3.34-.5,13.52,0,18.54-7.95-6.98-1.94-10.84-3.61-17.96-1.18-5.05-10.53-9.42-.6,1.16.43.92-5.05-.89-3.61,2.32,1.05,2.33,4.27-1.31,3.61,2.32-.95,5.26-6.49-2.42-6.02.29-.05-.08-1.01.23-1.2-.29-.09-.23.67-4.4.6-4.92,4.77,9.7-.22-5.26.6-11.88,4.34-6.8-1.44-5.45-1.81,5.5-1.57-.17-2.98,5.77-3.01,7.53-.5-1.34-.58-2.64-1.81-2.32-.03-12.75,0-25.49,0-38.24,1.91.27.62-1.17,1.81-2.9,7.56-1.61,5.71-3.25,6.02-3.48.23-.17-.13,1.61,3.91-2.9-3.65,7.02.55,4.44,5.12,8.69Z"/>
          <path class="cls-28" d="M14.88,18.02c.05.13-1.33.21,1.2,2.61q-.3,20.86-.6,41.72c-9.91-.44-6.44,10.48-6.62,11.3-.01.06-1.09-.21-1.2.29,1.26,3.27-1.72,4.85-1.81,5.21-.12.48,1.14.34-1.2,9.56-.45,1.77-2.34,4.17-2.41,6.66,5.17,3.39,2.47,8.72-1.81,11.88,0-10.04-.02-20.09,0-30.13,1,.23,1.91-2.01,2.41-2.9,4.9-1.33,3.41-13.53,7.82-18.83.21-1.27-1.07-.75-1.2-.87-2.17-1.89-2.19,3.14-9.03,4.64,0-.39,0-.77,0-1.16,6.13-2.38,13.78-12.09,13.24-18.25-.44-5.05-2.71,6.33-3.01,6.95-1.17,2.39-3.24,3.96-5.42,5.5-.69-5.72,4.1-5.74,3.61-12.75.84-.45,1.8-.66,2.41-1.45.08-.45-.12-1.08,0-1.45.48-1.43,2.94-19.81.6-19.7.09-.84.18-1.03.6-1.74.11.16,1.87,1.53,2.41,2.9Z"/>
          <path class="cls-9" d="M18.49,314.1c.01,1.35-.01,2.7,0,4.06.06,7.53-.05,15.07,0,22.6.04,6.37-.02,12.75,0,19.12.03,14.13.08,28.16,0,42.3-1.32-.49-1.66-2.47-3.01-4.06,1.2-3.28.46-7.49.6-11.01,0-.19,0-.39,0-.58.06-1.18.6-4.4.6-4.64-.06-5.37,1.11-9.56-7.22-12.17.7-.85.55-2.32.9-2.32.62.43-.02,1.34.6,1.74,9.53,6.12,6.43,9.37,6.32,0-.05-4.68-.45-9.27-.6-13.91-.56-17.38,3.25-15.04-5.42-6.37-1.44-.27-2.42.7-3.61,1.16-1.09.42-3.8-.46-6.02,1.45-.43.84,1.28,9.31-1.2,8.98,0-7.14.6-14.36.6-21.44.85.99,4.84,7.37,4.81,7.82-.05.97-7.05,5.37,2.71,1.45.62-.25-.02-1.41.6-1.74.95-.5,1.73.63,1.81.58,9.78-6.49,4.84-29.84,5.12-40.56.55-19.78-.33-39.38,0-59.1.04-2.16.57-4.66.6-6.95.39.06,1.19,1.91,1.2,2.03.52,3.54.51,60.16.6,71.56Z"/>
          <path class="cls-5" d="M8.86,454.32c-.86,6.3-1.04,12.76-1.81,19.12-8.88,4.45-4.12,10.43-4.21,18.25-.09,7.68-1.18,15.46-.6,23.18,1.71,3.3,3.57-13.42,7.22-15.35l1.2,5.21c-.17.08-2.11,2.44-2.41,2.9-2.17,3.31-3.24,9.36-3.01,13.33-.13,1.78-1.25,3.03-3.01,3.48-.5.13-1.23-.08-1.81,0,.09-16.22.64-32.43.6-48.67,1.16.03,4.67-2.6,4.81-3.19.28-1.11-.69-19.07-.6-22.89,4.83-1.35,1.93,2.16,3.61,4.64Z"/>
          <path class="cls-22" d="M7.66,427.08c-3.42,7.16-2.22,15-2.41,22.6-.09,3.82.88,21.77.6,22.89-.15.59-3.65,3.21-4.81,3.19-.03-13.71.04-27.43,0-41.14,1.14-.63,1.13-1.84,1.2-2.9,1.42-.44,3.26-5.63,3.91-5.79.24-.06-.24.81,1.5,1.16Z"/>
          <path class="cls-28" d="M8.26,273.54c1.22-.09,2.11-.9,3.61-.58.12.67,1.06,3.09,1.81,3.48.09.84.03.93,0,1.74-14.84-2.67-3.53,20.71-13.24,23.18.02-5.02-.02-10.04,0-15.06.62-.5,4.84-9.56,4.81-10.14-.06-1.28-2.73-4.82-4.21-5.5,0-.26-.63-.75-.6-5.21,1.49.34,1.17-1.1,1.81-1.74,6.4-2.78,5.19,6.22,4.21,9.56,1.12,1.44,1.04.35,1.81.29Z"/>
          <path class="cls-28" d="M1.04,339.01c0-2.95-.6-6.19-.6-9.27,1.52.31.84-.82,1.81-1.16.1.52,6.75,20.46,7.82,15.93.02-.08-.89-.45-.6-1.45,3.16-.68,4.19-4.2,4.21-6.95.01-1.38,1.11-1.36-.3-2.32-1.11,1.52-1.84,1-2.71,1.16l2.11-5.21c.7,8.62,2.82-4.69,2.11-15.64,1.9.63,1.07-2.85,1.2-7.53-.28,10.71,4.66,34.06-5.12,40.56-.08.05-.85-1.08-1.81-.58-.63.33.02,1.49-.6,1.74-9.76,3.92-2.76-.48-2.71-1.45.02-.45-3.96-6.84-4.81-7.82Z"/>
          <path class="cls-5" d="M.44,128.11c0-6.95,0-13.91,0-20.86,4.28-3.16,6.97-8.49,1.81-11.88.07-2.49,1.96-4.9,2.41-6.66,7.2,2.08,1.86,4.49,2.41,6.08,6.04,5.77-7.19,11.72-5.42,19.12.94,3.93,8.54,6.37-1.2,14.2Z"/>
          <path class="cls-28" d="M10.07,13.97c-2.07,2.05-1.76,8.78-2.41,10.72-.22.67-1.18-.61-1.81,1.45-1.22,4-2.41,5.76-2.41,6.08.02.98,6.69,7.52-3.01,8.98.02-3.67-.03-7.34,0-11.01,6.06-.45,3.47-5.92,6.02-9.56-2.74-5.05.99-7.53-6.02-9.56.05-1.84.46-3.48.6-5.21,2.33.94,7.89,6.35,9.03,8.11Z"/>
          <path class="cls-5" d="M13.68,278.18c-.02.73,1.51,1.17,1.2,2.03-4.12,3.04-4.75,6.39-6.02,11.01-2.99-7.44,3.12,7.45-8.43,11.3,0-.39,0-.77,0-1.16,9.71-2.47-1.6-25.85,13.24-23.18Z"/>
          <path class="cls-5" d="M.44,30.19c.06-6.36-.19-12.76,0-19.12,7,2.03,3.27,4.51,6.02,9.56-2.54,3.64.05,9.11-6.02,9.56Z"/>
          <path class="cls-9" d="M.44,555.13c-.19-1.39.05-3.15,0-4.64,4.01-.89,6.3-11.93,8.73-11.59,6.07.85-3.99,18.63-8.73,16.22Z"/>
          <path class="cls-28" d="M8.86,39.46c.49,7.01-4.3,7.02-3.61,12.75-1.39.98-2.94,2.36-4.81,2.32,0-2.32-.01-4.64,0-6.95,3.08-1.65-2.32-3.45,6.92-8.69,1.13-.64,1.43.62,1.5.58Z"/>
          <path class="cls-9" d="M12.48,15.13c-.43.71-.51.89-.6,1.74-1.24,11.89-5.58,22.11-.6,19.7-.12.37.08,1,0,1.45-.61.79-1.57,1-2.41,1.45-.07.04-.37-1.22-1.5-.58-9.24,5.24-3.84,7.04-6.92,8.69.01-2.12-.01-4.25,0-6.37,9.7-1.46,3.02-8,3.01-8.98,0-.33,1.19-2.08,2.41-6.08.83-1.91.1,13.88,2.41,7.82.72-1.89,1.42-14.85,3.01-19.99.05.07.55.19,1.2,1.16Z"/>
          <path class="cls-28" d="M7.66,350.02c-.1,3.5-2.13,5.92-3.01,9.27-.33,1.26.23,3.88,0,5.5-.94.95-1.53.75-2.41,2.03-1.19,1.72.11,3.16-1.81,2.9,0-3.09,0-6.18,0-9.27,2.48.33.77-8.14,1.2-8.98,2.22-1.91,4.93-1.03,6.02-1.45Z"/>
          <path class="cls-9" d="M2.24,410.28c.33.9-1.09,1.04,3.01,5.21,1.29,5.17-1.87,1.57-2.41,2.61-.31.61-.46,11.48-.6,13.62-.07,1.06-.06,2.27-1.2,2.9-.02-8.84-.58-17.77-.6-26.65,1.22-.32,1.31.98,1.81,2.32Z"/>
          <path class="cls-19" d="M2.85,74.23c2.42-4.29,3.32-8.71-2.41-11.01,0-.58,0-1.16,0-1.74q4.51-3.48,9.03-6.95c.14.12,1.42-.4,1.2.87-4.41,5.3-2.92,17.5-7.82,18.83Z"/>
          <path class="cls-5" d="M.44,181.42c0-7.15,0-14.29,0-21.44,2.76,7.52,7.24,15.23,0,21.44Z"/>
          <path class="cls-5" d="M1.04,199.96c-1.1-4.7-.6-9.71-.6-14.49,2.87-2.89,4.18,4.14,4.21,8.98-1.31,1.92-2.9,3.19-3.61,5.5Z"/>
          <path class="cls-9" d="M.44,286.29c.02-5.21.58-10.5.6-15.64,1.49.68,4.15,4.23,4.21,5.5.03.58-4.2,9.64-4.81,10.14Z"/>
          <path class="cls-5" d="M2.85,74.23c-.5.89-1.41,3.13-2.41,2.9.01-4.64-.02-9.27,0-13.91,5.72,2.3,4.83,6.72,2.41,11.01Z"/>
          <path class="cls-9" d="M.44,58c0-1.16,0-2.32,0-3.48,1.87.04,3.43-1.33,4.81-2.32,2.18-1.54,4.25-3.11,5.42-5.5.3-.62,2.57-12,3.01-6.95.54,6.16-7.11,15.87-13.24,18.25Z"/>
          <path class="cls-2" d="M8.26,9.91c1.18,1.29,1.99,2.73,3.01,4.06-.36-.03-1.17.06-1.2,0-1.13-1.76-6.7-7.18-9.03-8.11.03-.42-.74-.21,0-3.48,2.02,2.81,4.91,5.01,7.22,7.53Z"/>
          <path class="cls-9" d="M9.47,54.53q-4.51,3.48-9.03,6.95c0-.77,0-1.55,0-2.32,6.83-1.5,6.86-6.52,9.03-4.64Z"/>
          <path class="cls-21" d="M12.48,504.72c-.39.95-2.02,10.08,0,11.3-2.96,3.53-.79,2.44-.6,3.19.51,1.98-1.25,2.52,3.01,5.5-3.84,6.02-1.83,1.76-4.51,2.61-1.31.41-2.48,1.64-3.31,2.32-.14.11-1,.94-1.2,1.16l-4.21,2.03.6-8.4c1.76-.45,2.87-1.7,3.01-3.48.6.57,1.23,1.15,1.81,1.74,1.39,1.43,5.72,3.65,4.21,1.16-3.99-6.62-2.95-8.74-3.01-16.22.3-.45,2.23-2.82,2.41-2.9.25-.12,1.15.07,1.81,0Z"/>
          <path class="cls-10" d="M17.29,511.68c-.13,4.12-.23,22.26,0,23.47.5,2.62,1.24,2.14,1.81,2.61.05.04.53.89.6,1.16-1.27.63-4.07-1.56-4.21-1.74-2.82-3.53,1.18-9.81-8.43-7.53.83-.68,2-1.91,3.31-2.32,2.68-.84.67,3.42,4.51-2.61-4.26-2.98-2.5-3.53-3.01-5.5.58-1.7,2.43,1.74,3.01-.29,1.91-6.7-6.88-9.95.3-8.98.35.05,1.19,1.57,2.11,1.74Z"/>
          <path class="cls-22" d="M15.48,537.17c.46,1.38.16,10.28-1.81,6.08-.31-.65.94-12.22-7.52-8.4-1.83.82-7.55,17.45-4.51,2.03.41-2.1,2.72-4.52,4.21-6.08.21-.22,1.06-1.04,1.2-1.16,9.61-2.28,5.61,4,8.43,7.53Z"/>
          <path class="cls-9" d="M16.09,18.02c.8,1.69.48,1.5,1.81,1.74-.95,1.17.12,1.11,0,2.32-1.46,15.02-.59,30.68-.6,45.77,0,10.04,0,20.09,0,30.13v17.38c-.31.5.7,2.51-.9,2.32-2.24-4.13-10.81-6.43-6.02-6.37.34,0,4.45,2.32,5.42,4.06-.07-.98-2.5-6.64-2.71-6.95,3.52,3.33,1.22,3.43,1.81-10.72.02-.44,1.19-.14,1.2-.58.35-9.91-1.98-20.18,0-30.13l-7.22,6.66c.18-.82-3.29-11.74,6.62-11.3q.3-20.86.6-41.72c-2.54-2.4-1.15-2.47-1.2-2.61h1.2Z"/>
          <path class="cls-6" d="M14.88,184.89c.2-.08.77.05,1.2,0-.03,2.78,1.26,6.07.6,8.98-.45.51-1-.03-1.2.87-6.1-1.66-12.65-13-6.62-16.51-2.36-1.57-.63-3.65,0-5.5,5.3,2.16,7.16,14.92-.3,9.85-.94,5.67,2.57,3.85,6.32,2.32Z"/>
          <path class="cls-22" d="M14.88,184.89c-3.75,1.54-7.26,3.36-6.32-2.32,7.46,5.07,5.6-7.69.3-9.85.6-1.74,2.24-3.23,3.01-4.92.49-1.09,1.41-9.59,3.61-6.37.67.98-.08,20.53-.6,23.47Z"/>
          <g>
            <path class="cls-28" d="M13.08,108.41c-.1-.1-.05-2.07-2.41-1.45-.12,1.37,1.89.67,2.41,1.45.21.31,2.63,5.97,2.71,6.95-.96-1.74-5.07-4.05-5.42-4.06-4.79-.06,3.78,2.25,6.02,6.37,1.6.19.6-1.82.9-2.32,1.3-2.12,2.57-4.12,3.61-6.37.39,4.71.6,9.5,1.2,14.2.06.46,1.16.12,1.2.58.28,2.67-2.71,2.39,0,3.77-7.91,23.81-3.85-.75-6.02-6.66-3.11-8.49-15.15-4.19-9.93-3.19.71.14,7.07-3.63,8.73,7.82.6,4.14.12,48.63,0,59.39-.43.05-1-.08-1.2,0,.52-2.93,1.27-22.49.6-23.47-2.2-3.22-3.12,5.28-3.61,6.37-.77,1.69-2.41,3.18-3.01,4.92-.63,1.85-2.36,3.94,0,5.5-6.03,3.51.52,14.86,6.62,16.51-.05.24,1.67,1.65-1.5,4.06-8.91-10.99.44-.5-2.11,2.61-1.16,1.41-3.02.31-6.32,2.03-.59.31-2.37,3.56-3.01,3.48-1.83-.25.23-5.21-2.11-4.64.18-1.26.33-1.44.6-2.32.71-2.32,2.3-3.59,3.61-5.5-.03-4.84-1.34-11.87-4.21-8.98,0-1.35,0-2.7,0-4.06,7.24-6.21,2.76-13.92,0-21.44,0-4.64,0-9.27,0-13.91,1.7,1.14,2.26-3.96,4.21,1.45,2.21,6.15,1,21.15,2.11,21.15,1.39-.94,1.53-14.54,3.61-13.91-3.97,17.63.8,16.3.9-.87,0-.65-3.76-8.32,1.2-11.88.95,25.11,3.61,23.63,3.01-.87-.72-.95-1.35.45-1.81.29-.06-.02.16-1.23-.3-1.16-6.21,1.01-4.88,27.32-5.72,6.66-2.43,5.45-2.5-6.3-7.22-8.98,0-3.28,0-6.57,0-9.85,9.74-7.83,2.15-10.26,1.2-14.2-1.77-7.4,11.46-13.35,5.42-19.12-.55-1.59,4.8-4-2.41-6.08,2.35-9.22,1.09-9.08,1.2-9.56.09-.37,3.07-1.94,1.81-5.21.11-.49,1.19-.23,1.2-.29l7.22-6.66c-1.98,9.95.35,20.22,0,30.13-.02.44-1.19.14-1.2.58-.59,14.15,1.71,14.05-1.81,10.72Z"/>
            <g>
              <path class="cls-9" d="M13.68,141.44c-1.39-.21-1.15.54-1.2.58-4.97,3.56-1.2,11.23-1.2,11.88-.11,17.17-4.87,18.5-.9.87-2.08-.64-2.22,12.97-3.61,13.91-1.1,0,.11-15-2.11-21.15-1.95-5.41-2.51-.31-4.21-1.45,0-2.7,0-5.41,0-8.11,4.72,2.68,4.79,14.43,7.22,8.98.84,20.65-.49-5.65,5.72-6.66.46-.08.24,1.14.3,1.16Z"/>
              <path class="cls-6" d="M10.97,123.48c2.92-.02,3.59,8.51.9,12.46-6.49,9.55-5.61-12.42-.9-12.46Z"/>
              <path class="cls-21" d="M12.48,142.02c.05-.04-.19-.79,1.2-.58.45.16,1.09-1.24,1.81-.29.6,24.49-2.06,25.98-3.01.87Z"/>
              <path class="cls-2" d="M7.96,196.48c3.05.09-.45,6.83-1.81,5.79-1.35-1.03,1.23-5.81,1.81-5.79Z"/>
              <path class="cls-9" d="M13.08,108.41c-.52-.78-2.52-.08-2.41-1.45,2.36-.62,2.31,1.35,2.41,1.45Z"/>
            </g>
          </g>
          <path class="cls-6" d="M11.27,301.35c.05.27,1.66-.4,2.41,4.64-1.24,1.23.16,1.73-1.81,3.48-.35.31-.85.87-1.2,1.16-2.43,1.98-2.94-3.47-2.41,7.53.65,13.57-7.54-6.24-2.41-10.14-3.37-1.9-1.36-2.64-.6-4.92,1.99-1.57,3.43-2.01,6.02-1.74Z"/>
          <path class="cls-6" d="M9.47,334.96c.39-.05.82.07,1.2,0,.87-.16,1.6.36,2.71-1.16,1.41.96.31.94.3,2.32-1.55,3.68-3.27,3.71-4.21,6.95-.29,1,.62,1.37.6,1.45-1.08,4.52-7.72-15.42-7.82-15.93,5.79-2.02,3.56,7.27,5.12,7.53,1.01.16,1.25-1.04,2.11-1.16Z"/>
          <path class="cls-9" d="M14.88,314.1c.72,10.95-1.41,24.27-2.11,15.64l-2.11,5.21c-.38.07-.82-.05-1.2,0-.03-2.17,1.12-4.46.6-6.66-.81-3.44-12.51-6.74,0-2.9.1,16.22,6.22-5.22,1.81-15.93,1.97-1.74.57-2.24,1.81-3.48.4,2.68,1.03,5.4,1.2,8.11Z"/>
          <path class="cls-9" d="M8.26,263.11c-.02.83,1.42,4.74,0,10.43-.76.06-.69,1.15-1.81-.29.98-3.34,2.19-12.34-4.21-9.56,1.77-1.79,4.5-3.73,6.02-.58Z"/>
          <path class="cls-13" d="M10.67,310.62c1.04,3.19,1.81,7.6-2.41,7.53-.53-11-.03-5.55,2.41-7.53Z"/>
          <path class="cls-9" d="M13.68,276.44c-.75-.39-1.69-2.8-1.81-3.48-.35-1.96-1.64-16.35-1.2-17.09h1.2c-.21,6.92,1.11,13.72,1.81,20.57Z"/>
          <path class="cls-5" d="M10.67,297.3c-.42.05-.98-.09-1.2,0-2.71-.68-1.49-7.25,2.71-6.37,5.69,1.18-.73,2.37-.9,2.61-.28.38.97,1.17.6,2.9-.1.49-1.14-.04-1.2.87Z"/>
          <path class="cls-13" d="M10.67,297.3c-.01.2.48,3.42.6,4.06-2.59-.28-4.03.17-6.02,1.74.34-1.01,2.05-4.98,4.21-5.79.23-.09.79.05,1.2,0Z"/>
          <g>
            <path class="cls-9" d="M29.93,113.63c-1.65,6.98-4.93,21.42-9.63,26.07-.09.09-1.95-.32-2.41.87-.47,1.24.05,22.38,0,26.36-.09,7.14.04,14.29,0,21.44-.07,11.2.15,22.41,0,33.61,0,.58,0,1.16,0,1.74-.05,3.28.04,6.57,0,9.85-5.01,1.67-.64-7.73-2.71-11.01-4.38,18.66-4.79,9.46-.3-4.64.07-.19,1.68.11,1.2-3.77-1.26-.85-2.82-11.74-4.21-10.43-4.02,12.19-.49,5.78,1.81,12.75-4.21,5.74.97-2.88-3.31-2.61-3.38.22-.41,10.59-6.32,15.06-.62.47-1.97.85-3.01,1.74.12-9.17-1.91-19.29-.6-28.39,2.33-.57.27,4.38,2.11,4.64.64.09,2.42-3.17,3.01-3.48,3.3-1.72,5.16-.62,6.32-2.03,2.55-3.11-6.8-13.6,2.11-2.61,3.18-2.4,1.45-3.81,1.5-4.06.2-.9.75-.36,1.2-.87.66-2.91-.63-6.2-.6-8.98.12-10.76.6-55.25,0-59.39-1.65-11.46-8.01-7.69-8.73-7.82-5.22-1,6.82-5.3,9.93,3.19,2.17,5.92-1.89,30.47,6.02,6.66,1.59-4.78,2.67-9.7,4.21-14.49l2.41.58Z"/>
            <path class="cls-28" d="M8.56,203.43c.77-.09,1.85.12,2.11.87.4,1.19-6.02,21.79-8.12,23.47-1.18-5.63-2.6-23.35,6.02-24.33Z"/>
            <path class="cls-28" d="M14.88,217.92c-1.14,3.22-4.73,10.23-3.01,3.19-2.2-2.93-2.74,10.78-3.91,10.72-.51-.03-1.05-2.17-3.91-2.9,5.91-4.48,2.94-14.85,6.32-15.06,4.28-.28-.9,8.34,3.31,2.61-2.29-6.96-5.83-.56-1.81-12.75,1.4-1.31,2.95,9.58,4.21,10.43.47,3.88-1.14,3.58-1.2,3.77Z"/>
            <path class="cls-28" d="M15.79,198.22c1.13,8.61-.22,16.32-2.11,2.61l2.11-2.61Z"/>
          </g>
          <path class="cls-6" d="M16.69,355.24c.15,4.64.55,9.22.6,13.91-4.56-4.25-8.76-1.67-5.12-8.69-4.04,4.51-3.68,2.73-3.91,2.9,1.21-1.21-1.1-2.61-1.5-2.32-1.01.72-.03,3.84,1.5,2.32-.31.23,1.55,1.86-6.02,3.48.88-1.28,1.47-1.08,2.41-2.03.23-1.62-.33-4.25,0-5.5.65-.75,4.51-3.95,4.81-4.06.34-.12,6.4-.5,7.22,0Z"/>
          <path class="cls-6" d="M14.88,379.57c.81.74,1.52,1.16,1.81,2.32,0,.23-.54,3.46-.6,4.64-5.53-5.29-.8,5.23-11.13,6.95-.61-.21-.13-1.31-.3-1.74.39.03.84-.07,1.2,0,1.93.36,4.04-8.84,4.81-11.01,1.28-3.58-1.17-6.04,4.21-1.16Z"/>
          <path class="cls-6" d="M14.88,379.57c-5.38-4.88-2.94-2.42-4.21,1.16-3.65,2.34-2.69,7.6-4.81,11.01-.37-.07-.81.03-1.2,0-1.71-4.3.09-7.58,1.2-11.59.2-.71,1.67-3.45,2.41-5.21,2.67-.43,5.9,2.15,6.62,4.64Z"/>
          <path class="cls-28" d="M5.25,402.75c-.09,2.79.94,4.47,1.2,6.37.07.52-.69,4.69-.6,4.92.19.52,1.15.21,1.2.29.17.28.54,1.1.6,1.16-1.18.09-.17,2.01-.9,2.32-.13.05-.43-1.22-1.5-2.32-4.1-4.18-2.68-4.32-3.01-5.21.03-1.77,1.44-7.7,3.01-7.53Z"/>
          <path class="cls-22" d="M16.09,387.1c-.14,3.52.6,7.73-.6,11.01-.14-.16-.45-.97-.6-1.16-1.69-2.16-3.37-1.59-3.61-2.03.84-2.57,1.07-10.04,4.81-7.82Z"/>
          <path class="cls-9" d="M6.46,409.12c-.26-1.9-1.3-3.59-1.2-6.37.37-10.95,6.14-12.3,1.81-5.5-.82,6.61,4.17,21.58-.6,11.88Z"/>
          <path class="cls-14" d="M9.47,369.72c0,1.7-.55,3.67-1.2,5.21-.74,1.76-2.21,4.5-2.41,5.21l1.81-10.14c.28-.59,1.68-.14,1.81-.29Z"/>
          <path class="cls-19" d="M11.27,36.56c-4.98,2.41-.64-7.81.6-19.7,2.34-.11-.12,18.27-.6,19.7Z"/>
          <path class="cls-22" d="M16.69,355.24c-.83-.5-6.88-.12-7.22,0l1.81-6.37c8.67-8.67,4.86-11.01,5.42,6.37Z"/>
          <path class="cls-28" d="M16.69,381.89c-.28-1.15-.99-1.58-1.81-2.32-.72-2.49-3.95-5.07-6.62-4.64.65-1.55,1.2-3.52,1.2-5.21,8.33,2.6,7.17,6.8,7.22,12.17Z"/>
          <path class="cls-13" d="M11.27,348.86l-1.81,6.37c-.3.11-4.16,3.31-4.81,4.06.88-3.35,2.91-5.77,3.01-9.27,1.19-.46,2.17-1.42,3.61-1.16Z"/>
          <g>
            <path class="cls-28" d="M17.89,233.56c-.11,8.61-1.2,6.01-1.2,6.37-5.35-8.92-11.08,16.04-7.82,19.12-.01.16.72-.12.6,3.19-.01.43-1.2.8-1.2.87-1.52-3.15-4.25-1.21-6.02.58-.63.64-.31,2.07-1.81,1.74.01-2.7-.02-5.41,0-8.11l4.21,2.03c-10.3,6.84,8.58,1.71-4.21-4.92.05-7.93.49-15.85.6-23.76,1.04-.89,2.39-1.27,3.01-1.74,2.86.73,3.4,2.87,3.91,2.9,1.17.06,1.71-13.65,3.91-10.72-1.72,7.05,1.87.03,3.01-3.19-4.49,14.1-4.08,23.3.3,4.64,2.06,3.28-2.31,12.68,2.71,11.01Z"/>
            <path class="cls-9" d="M.44,257.32c0-.97,0-1.93,0-2.9,12.8,6.64-6.09,11.77,4.21,4.92l-4.21-2.03Z"/>
            <path class="cls-6" d="M16.69,239.94c0,.19,0,.39,0,.58-.03,2.3-.57,4.79-.6,6.95-5.26-12.35-6.8,6.59-7.22,11.59-3.26-3.08,2.48-28.04,7.82-19.12Z"/>
            <path class="cls-9" d="M5.55,231.24c.61-.13,2.58,1.64,2.71,2.03.42,1.25-2.01,21.35-3.61,11.59-.31-1.9-.64-13.29.9-13.62Z"/>
          </g>
          <path class="cls-28" d="M7.66,415.5c1.38,1.34,5.27,1.83,4.21,4.35-.9,2.15-4.7-1.16-4.81,1.16-.03.67,7.03,2.37,9.63,9.27-1.75,9.97,1.93,23.35-3.61,25.49,1.71,10.31-1.58,10.98-1.2,2.32.02-.44,1.18-.14,1.2-.58,0-.13-1.31-1.49-1.2-2.32.07-.53,2.73-1.18,1.81-2.32-.38-.47-2.08-.48-2.41,0-1.28,1.87,1.17,11.89,1.2,14.77.04,3.58.1,6.64-3.01,9.27-.15.13-1.58.05-3.61,1.74,0-.06-1.28.16-1.2-.29.19-1.19,2.09-2.25,2.41-4.92.76-6.36.95-12.82,1.81-19.12,2.04-14.97,5.19-8.86,6.02-15.06.63-4.71-.86-9.19-5.42-11.59-.96-.51-.83-.38-1.81-.58-1.75-.35-1.26-1.22-1.5-1.16-.65.16-2.49,5.35-3.91,5.79.15-2.14.29-13.01.6-13.62.53-1.04,3.7,2.57,2.41-2.61,1.07,1.1,1.37,2.37,1.5,2.32.73-.31-.28-2.23.9-2.32Z"/>
          <path class="cls-28" d="M5.86,478.65c-.53,4.47-1.1,8.83-.3,13.33,4.58-1.62,5.19-6.3,6.92-9.85-1.59,6.25.63,6.31.6,6.66-.04.48-1.16.22-1.2.29-.12.18-1.79.44-1.81,2.61,0,.39,2.91,6.54,2.41,7.53-.42.84-1.05-.75-3.01.29-3.66,1.93-5.51,18.65-7.22,15.35-.58-7.72.51-15.49.6-23.18.09-7.82-4.67-13.81,4.21-18.25-.32,2.67-2.22,3.73-2.41,4.92-.07.45,1.21.23,1.2.29Z"/>
          <path class="cls-8" d="M9.47,427.66c2.54,6.96-.05,15.15,2.71,15.06,1.65-.05.87-3.69,2.71-3.48-.83,6.2-3.98.09-6.02,15.06-1.68-2.47,1.22-5.98-3.61-4.64.19-7.6-1.01-15.44,2.41-22.6.98.2.84.07,1.81.58Z"/>
          <path class="cls-22" d="M11.27,523.84l-4.21-1.16c-.58-.59-1.2-1.17-1.81-1.74-.23-3.96.83-10.02,3.01-13.33.06,7.48-.98,9.6,3.01,16.22Z"/>
          <path class="cls-13" d="M9.47,343.07c.94-3.25,2.66-3.28,4.21-6.95-.03,2.75-1.06,6.27-4.21,6.95Z"/>
          <path class="cls-19" d="M11.27,13.97c-1.59,5.14-2.29,18.1-3.01,19.99-2.31,6.06-1.58-9.73-2.41-7.82.63-2.06,1.58-.78,1.81-1.45.64-1.93.34-8.67,2.41-10.72.04.06.85-.03,1.2,0Z"/>
          <path class="cls-4" d="M18.49,505.3c-.07,1.44-1.17,5.42-1.2,6.37-.92-.17-1.75-1.69-2.11-1.74-7.18-.97,1.61,2.28-.3,8.98-.58,2.03-2.42-1.41-3.01.29-.19-.75-2.35.34.6-3.19-2.02-1.21-.39-10.35,0-11.3.8-1.93,5.29-5.7,5.42-6.08.16-.45-.08-7.95,0-9.56.9,5.23.87,10.95.6,16.22Z"/>
          <path class="cls-10" d="M11.27,523.84c1.5,2.49-2.82.27-4.21-1.16l4.21,1.16Z"/>
          <path class="cls-21" d="M11.87,489.08c.04-.07,1.17.19,1.2-.29.03-.36-2.19-.41-.6-6.66.57-1.17.56-1.65.6-1.74.44-.98.79-1.98,1.2-2.9.51-1.13,1.65-5.5,3.01-3.19.56.95,1.16,23.98-5.42,14.77Z"/>
          <path class="cls-6" d="M14.28,477.49c-.41.92-.76,1.91-1.2,2.9-5.52,4.61-3.22.88-3.61-3.48,3.11-2.63,3.05-5.69,3.01-9.27,3.24-2.64,2.58,4.44,1.81,9.85Z"/>
          <g>
            <path class="cls-10" d="M14.88,396.95c.15.19.46,1,.6,1.16,1.35,1.59,1.69,3.57,3.01,4.06-.14,26.65.11,53.31-.6,79.96-.06,2.31.12,4.65,0,6.95-.08,1.61.16,9.11,0,9.56-.13.38-4.62,4.16-5.42,6.08-.66.07-1.55-.12-1.81,0l-1.2-5.21c1.96-1.04,2.59.55,3.01-.29.5-.99-2.41-7.14-2.41-7.53.01-2.17,1.69-2.43,1.81-2.61,6.57,9.21,5.98-13.82,5.42-14.77-1.36-2.31-2.5,2.05-3.01,3.19.77-5.41,1.44-12.49-1.81-9.85-.03-2.89-2.48-12.91-1.2-14.77.33-.48,2.03-.47,2.41,0,.92,1.14-1.74,1.79-1.81,2.32-.11.83,1.21,2.19,1.2,2.32-.02.44-1.18.14-1.2.58-.37,8.67,2.91,7.99,1.2-2.32,5.54-2.14,1.86-15.52,3.61-25.49-2.6-6.9-9.66-8.6-9.63-9.27.12-2.32,3.91.99,4.81-1.16,1.06-2.52-2.84-3.01-4.21-4.35-.06-.06-.43-.88-.6-1.16-.48-2.71,5.07,4.97,6.02-.29.66-3.62-2.57,0-3.61-2.32-1.44-3.21,4.04-1.4,3.61-2.32-9.93-10.58-.58-6.21.6-1.16,1.67,7.12-4.34,10.98,3.61,17.96-.5-5.02.68-15.2,0-18.54-.62-3.05-11.54-14.07-2.41-10.72Z"/>
            <path class="cls-15" d="M15.79,467.64c1.85-1.13,1.22,1.67.6,1.74-.21.02-1.47-1.21-.6-1.74Z"/>
          </g>
          <path class="cls-25" d="M8.26,363.35c-1.53,1.53-2.51-1.6-1.5-2.32.4-.29,2.72,1.11,1.5,2.32Z"/>
          <path class="cls-25" d="M10.67,380.73c-.77,2.17-2.89,11.37-4.81,11.01,2.13-3.41,1.16-8.67,4.81-11.01Z"/>
          <path class="cls-6" d="M9.47,476.91c.39,4.35-1.91,8.09,3.61,3.48-.04.08-.03.57-.6,1.74-1.73,3.55-2.34,8.23-6.92,9.85-.8-4.5-.23-8.85.3-13.33,2.03-1.69,3.46-1.61,3.61-1.74Z"/>
          <path class="cls-6" d="M14.88,439.25c-1.84-.22-1.06,3.42-2.71,3.48-2.76.09-.17-8.1-2.71-15.06,4.56,2.4,6.05,6.87,5.42,11.59Z"/>
        </g>
        <g>
          <path class="cls-13" d="M31.13,84.08c-.64,2.13-8.63,21.46-10.23,24.91-1.04,2.25-2.31,4.25-3.61,6.37v-17.38c2.97.24,5.97-14.58,7.22-17.67.92-2.25,2.51-4.08,3.61-6.08.25-.45,6.63-7.57,3.01-8.69.27-.93.38-2.08.6-2.9,5.16-1.41,1.56,14.31-.6,21.44Z"/>
          <path class="cls-14" d="M27.52,113.05c-1.55,4.79-2.63,9.71-4.21,14.49-2.71-1.37.28-1.1,0-3.77-.05-.46-1.14-.12-1.2-.58-.61-4.69-.82-9.48-1.2-14.2,1.6-3.45,9.59-22.79,10.23-24.91.19,9.46-1.94,18.39-3.61,28.97Z"/>
          <path class="cls-13" d="M38.35,73.07c.34.89.68.37,1.2.87-.58,11.11-1.36,22.22-2.41,33.32-.58.06-1.43-.24-1.81.29-.65.93-6.37,18.48-6.62,21.44,1.82,6.17-4.68,26.78,3.61,24.05-.32,2.3-.54,4.72-1.2,6.95.19,3.34-2.34,7.7-2.41,8.11l-8.43-28.39c4.7-4.65,7.98-19.09,9.63-26.07,3.29-13.95,3.7-27.08,6.02-40.85.99-5.9,1.32-2.56,2.41.29Z"/>
          <path class="cls-23" d="M46.78,50.47v.58c-.9.18-.7,3.92-.6,6.95-2.89.6-.13,11.55-1.2,13.04-.24.33-1.46.18-3.01.87-1.17.52-2.18,1.41-3.61,1.16-1.08-2.85-1.42-6.19-2.41-.29-2.31,13.76-2.73,26.9-6.02,40.85l-2.41-.58c1.67-10.58,3.8-19.51,3.61-28.97,2.16-7.13,5.76-22.85.6-21.44.05-.18-.05-.4,0-.58,9.85-3.62,4.15-6.6,4.21-7.82,2.54-4.72,1.4-6.38,0-10.14-.1-.26-3.17-2.81-1.2-4.64,2.08,2.1,11.59,9.1,12.04,11.01Z"/>
          <path class="cls-14" d="M31.73,177.36c-.02.19.02.39,0,.58-.76,9.46-.73,19-2.41,28.39-.62-1.19-.66-2.19-.9-2.32l-.9.87c-2.7,15.68-4.37,9.08-5.12,9.56-.37.24-2.65,7.39-4.51,7.53.15-11.2-.07-22.4,0-33.61,2.91.82,3.99,8.3,4.81,11.88h1.2c1.22-7.59,1.58-15.33,3.01-22.89h4.81Z"/>
          <path class="cls-31" d="M20.3,139.7l8.43,28.39c-.38,2.31-.77,4.66-1.2,6.95-2.98.81-3.65,10.2-6.92,8.11-1.26-.81,2.64-17.96-2.71-16.22.05-3.98-.47-25.13,0-26.36.45-1.19,2.32-.78,2.41-.87Z"/>
          <path class="cls-13" d="M27.52,175.04c-.05.29-.33.9-.6,2.32-1.43,7.56-1.79,15.3-3.01,22.89h-1.2c-.82-3.58-1.9-11.06-4.81-11.88.04-7.14-.09-14.29,0-21.44,5.35-1.74,1.44,15.42,2.71,16.22,3.27,2.09,3.94-7.3,6.92-8.11Z"/>
          <path class="cls-16" d="M29.33,206.33c.1.2,1.37,3.81,1.2,4.35-.46,1.84-1.56,4.3-1.81,6.08-.75,5.37-2.04,9.51-1.81,14.2-1.79,1.03-1.51-.39-2.41-.87-.81-.43-1.41-.78-2.41-.58.81-4.37,2.64-8.56,3.01-13.04l-1.81.58-1.2,9.85-4.21-3.19c0-.58,0-1.16,0-1.74,1.86-.14,4.14-7.29,4.51-7.53.74-.48,2.41,6.12,5.12-9.56l.9-.87c.24.12.28,1.13.9,2.32Z"/>
          <path class="cls-7" d="M31.13,334.96c.76.78,1.72,3.7-.6,4.64,1.37-8.67-7.41-1.06-7.22-.29.09.34,2.54.5,4.81,3.19.11.13,1.16,2.19,1.2,2.32.39,1.93-1.22,4.06-1.2,4.35.02.44,1.18.14,1.2.58.25,4.85.34,13.54.6,3.19,3.02-.87-1.41-4.5,4.81-5.21.45,10.34,1.3,20.66,1.81,31,4.38,3.27,3.36,14.05-3.61,14.49-.3.63.99,1.14.6,2.03-.25.12-1.9-.25-1.81,1.74-1.38.12-1.39-.85-2.41-1.16,0-.09-1.2-1.14-1.2-1.45-.1-4.15.78-16.34,0-18.54-2.31-6.49-1.11,6.58-2.71,15.93-6.87-28.87-7.91-14.41.9,4.92.17,15.14.57,30.39,1.81,45.48-6.47-6.43-4.4,6.72-4.21,21.44-.93-.08-.51,1.1-.6,1.16-8.43,5.42-1.39,11.54-5.42,17.38.71-26.65.46-53.31.6-79.96.08-14.14.03-28.17,0-42.3,2.17.32.48-6.29,4.81-6.37-.65,6.69-.85,14.3,2.41,20.57q-.9-12.89-1.81-25.78c.12-.7,5.05-8.03-2.41-8.11,2.38-3.76,5.01-3.69,3.31-8.11,2.17,3.31,4.9,1.43,6.32,2.9Z"/>
          <path class="cls-16" d="M23.91,348.28c-.31,1.87-1.11.93-1.2,1.45.11,1.41.76,2.18.6,3.77-4.33.09-2.64,6.7-4.81,6.37-.02-6.37.04-12.75,0-19.12,1.97.33,2.66-.58,3.01-.58,7.46.08,2.53,7.41,2.41,8.11Z"/>
          <path class="cls-4" d="M35.95,511.68c.56,2.95-.58,9.28,3.61,6.37-5.33,5.79-11.73,11.89-17.45,17.38-.84.81-2.04,1.61-3.01,2.32-.57-.47-1.31.02-1.81-2.61-.23-1.21-.13-19.35,0-23.47.03-.96,1.13-4.94,1.2-6.37,2.43.1,1.45,3.16,2.11,4.64.37-4.23,1.98-2.61,2.11-3.19.8-3.54.15-34.19.6-42.01.09-.06-.32-1.24.6-1.16.13,9.88-.26,42.94.6,48.96.22,1.52,4,13.17,5.72,11.88,2.54-1.91-5.24-20.59,5.72-12.75Z"/>
          <path class="cls-13" d="M32.94,37.72c.58.58,1.2,1.13,1.81,1.74-1.97,1.82,1.11,4.38,1.2,4.64-.68,6.15-2.59,12.02-4.21,17.96-.05.18.05.4,0,.58-.23.82-.33,1.97-.6,2.9-.85,2.93-2.12,5.77-3.01,8.69-1.1,2-2.69,3.83-3.61,6.08-1.26,3.09-4.25,17.92-7.22,17.67,0-10.04,0-20.09,0-30.13,3.74-3.42,3.62,21.36,6.02,14.2q3.61-22.31,7.22-44.61c1.57-1.84.56.47,2.41.29Z"/>
          <path class="cls-20" d="M28.12,74.23c.89-2.92,2.15-5.76,3.01-8.69,3.62,1.12-2.76,8.24-3.01,8.69Z"/>
          <path class="cls-31" d="M32.94,37.72c-1.85.18-.84-2.13-2.41-.29q-3.61,22.31-7.22,44.61c-2.4,7.17-2.27-17.62-6.02-14.2,0-15.09-.86-30.75.6-45.77,5.33,4.89,9.98,10.55,15.04,15.64Z"/>
          <path class="cls-16" d="M35.95,175.62c-.96,8.77-3.35,25.84,0,23.47-.05,8.79-.13,17.57,0,26.36-4.37,2.26-2.35-2.82-3.61-6.95-.14-.46.3-1.49-.3-1.74-.15-.06-2.04,1.63-3.31,0,.25-1.79,1.35-4.25,1.81-6.08.17-.53-1.1-4.14-1.2-4.35,1.68-9.39,1.64-18.93,2.41-28.39l4.21-2.32Z"/>
          <path class="cls-16" d="M35.95,231.24c.04,17.96-.49,35.92-.6,53.88-4.93,2.85-2.54-21.05-3.61-26.36-.11-.37-.47.65-2.41-.87,3.27-11.42.99-30.47,6.62-26.65Z"/>
          <path class="cls-12" d="M32.33,218.5c1.26,4.13-.76,9.22,3.61,6.95.03,2,0,3.82,0,5.79-5.63-3.82-3.35,15.23-6.62,26.65-.23-.18-.95.73-2.41-1.16-.18-11.43,4.92-15.47,0-12.75.29-4.62.11-29,5.42-25.49Z"/>
          <path class="cls-7" d="M34.14,338.43c.07,3.15.47,6.16.6,9.27-6.23.72-1.8,4.34-4.81,5.21.07-2.75.31-5.41-.6-8.11-.04-.12-1.09-2.18-1.2-2.32,2.27.41,2.14-1.22,2.41-2.9,2.32-.93,1.36-3.85.6-4.64l2.41-2.61.6,6.08Z"/>
          <g>
            <path class="cls-16" d="M22.1,229.51c-1.01,5.41-2.49,9.73-1.81,14.77,7.62,12.75-.59,17.65,1.5,29.84,1.68-9.23,6.17-20.24.3-28.68,1.69-5.12,3.29-10.02,2.41-15.35.9.48.62,1.9,2.41.87-.23-4.69,1.06-8.82,1.81-14.2,1.27,1.63,3.16-.06,3.31,0,.6.25.16,1.28.3,1.74-5.31-3.51-5.12,20.88-5.42,25.49-.04.67-3.23,8.54,0,12.75,1.45,1.89,2.18.98,2.41,1.16,1.94,1.52,2.29.5,2.41.87,1.07,5.31-1.32,29.21,3.61,26.36-.11,17.74-1.62,35.56-1.2,53.31l-.6-6.08-2.41,2.61c-1.42-1.46-4.15.41-6.32-2.9,1.7,4.42-.93,4.35-3.31,8.11-.35,0-1.04.91-3.01.58-.05-7.53.06-15.07,0-22.6,3.27.19,3.86,9.09,6.32,12.75,2.42,1.2-2.39-12.14-2.71-13.04,20.83,5.31,3.32-.95-3.61-3.77-.1-11.4-.08-68.01-.6-71.56-.02-.12-.81-1.97-1.2-2.03,0-.19,0-.39,0-.58,0-.36,1.09,2.24,1.2-6.37.04-3.28-.05-6.57,0-9.85l4.21,3.19,1.2-9.85,1.81-.58c-.37,4.47-2.19,8.66-3.01,13.04Z"/>
            <path class="cls-23" d="M18.49,318.16c-.01-1.35.01-2.7,0-4.06,6.93,2.82,24.44,9.07,3.61,3.77.31.9,5.13,14.24,2.71,13.04-2.45-3.65-3.04-12.56-6.32-12.75Z"/>
            <path class="cls-23" d="M24.51,230.09c.88,5.33-.72,10.24-2.41,15.35,5.87,8.44,1.38,19.45-.3,28.68-2.1-12.18,6.11-17.09-1.5-29.84-.68-5.04.8-9.37,1.81-14.77.99-.2,1.6.15,2.41.58Z"/>
            <path class="cls-7" d="M27.22,264.85c2.19.01-.73,7.98.3,10.14.1.22,3.96-.81,3.61,2.32-.36,3.16-6.6-2.51-4.81,15.06.72,2.64,2.73-1.01,3.61,1.74,2.44,7.64-12.38,11.62-4.21-4.64.3-2.52-.41-10.85,0-11.59.14-.26,9.42-.4,3.31-2.03-2.23-.59-5.27,3.65-1.81-11.01Z"/>
            <path class="cls-17" d="M26.92,256.74c-3.23-4.21-.04-12.08,0-12.75,4.92-2.73-.18,1.31,0,12.75Z"/>
          </g>
          <path class="cls-20" d="M37.75,137.96c-4.3-9.18-3.43,5.62-3.61,9.27-.02.42-1.73,2.21.6,6.66-.23,1.48-1.78,5.77-1.81,6.08h-1.81c.66-2.23.88-4.66,1.2-6.95.6-4.3.02-10.9.6-15.35,1.31-10.14,3.25-20.24,4.21-30.42,1.05-11.1,1.82-22.2,2.41-33.32-.52-.5-.86.02-1.2-.87,1.43.25,2.45-.64,3.61-1.16.6.09,2.16-.27,2.41.29.99,2.24,1.1,46.28.6,48.67-1.2,5.74-5.83,4.27-6.02,4.64-.28.56-.98,10.52-1.2,12.46Z"/>
          <path class="cls-14" d="M37.15,107.25c-.96,10.18-2.9,20.28-4.21,30.42-.58,4.45,0,11.05-.6,15.35-8.29,2.74-1.79-17.87-3.61-24.05.25-2.96,5.97-20.51,6.62-21.44.37-.53,1.22-.23,1.81-.29Z"/>
          <path class="cls-13" d="M32.94,159.98c-.42,5.78-.75,11.61-1.2,17.38h-4.81c.27-1.42.55-2.03.6-2.32.43-2.3.82-4.65,1.2-6.95.07-.42,2.6-4.77,2.41-8.11h1.81Z"/>
          <path class="cls-16" d="M46.18,58c.19,5.77.02,11.61,0,17.38-.19,62.97-.62,125.92-.6,188.89l-.9-9.27-6.92,4.06c.07-8.7.49-17.38.6-26.07l6.02,2.03c.72-1.14-3.14-20.49-6.02-21.73.08-4.69-.7-9.67-.6-14.49,7.62,2.6,1.77-5.64,3.61-13.62.51-2.21,6.8-3.07-2.41-9.56.83-9.01,2.31-11.25,2.41-11.88.47-2.91-1.99-8.51,3.61-13.91.43-8.12-.01-19.49-3.01-3.48-.03.18,1.53,2.41,1.2,3.48-.28.9-3.03,1.26-3.61,2.32-1.51,2.75-3.16,19.36-3.61,23.47l-4.21,2.32c.02-.19-.02-.39,0-.58.46-5.77.78-11.6,1.2-17.38.02-.32,1.58-4.61,1.81-6.08-2.33-4.45-.62-6.24-.6-6.66,4.73,1.78,2.17,3.43,3.61-9.27.22-1.93.92-11.89,1.2-12.46.18-.37,4.82,1.11,6.02-4.64.5-2.39.39-46.43-.6-48.67-.25-.56-1.81-.2-2.41-.29,1.55-.69,2.77-.54,3.01-.87,1.07-1.49-1.69-12.44,1.2-13.04Z"/>
          <path class="cls-20" d="M31.73,62.06c1.62-5.94,3.53-11.81,4.21-17.96,1.4,3.76,2.54,5.42,0,10.14-.06,1.22,5.64,4.2-4.21,7.82Z"/>
          <path class="cls-4" d="M23.31,464.74c-.45,7.82.2,38.47-.6,42.01-.13.58-1.74-1.05-2.11,3.19-.66-1.47.32-4.54-2.11-4.64.27-5.27.3-10.99-.6-16.22.12-2.31-.06-4.64,0-6.95,4.02-5.84-3.02-11.96,5.42-17.38Z"/>
          <path class="cls-7" d="M38.35,412.02c-.1,2.63-.53,5.41-.6,8.11-10.04-7.93-3.85,9.65-3.01,15.35.37,2.49-.15,7.05,0,8.11.07.46,1.11.11,1.2.58.47,2.37-1.01,5.33,1.2,4.92,1.15,20.66,6.04,45.2,6.02,62.87,0,.16-2.56,1.69,0,2.03-.62.8-1.32,1.17-1.81,1.74-3.37-16.74-6.49-33.75-8.43-50.7-1.82-16.02-2.53-45.82-4.21-54.17.58-2.25,0-2.67,0-2.9-.06-4.02.68-8.28.6-12.17,1.01.31,1.03,1.28,2.41,1.16,1.6-.14,1.59-1.23,1.81-1.74.64-.3,2.83-1.38,3.31-1.16,1.38.65,1.6,15.38,1.5,17.96Z"/>
          <path class="cls-7" d="M28.12,442.15c1.89,23.16,3.47,46.65,7.82,69.53-10.96-7.85-3.18,10.84-5.72,12.75-1.72,1.3-5.5-10.35-5.72-11.88-.86-6.02-.47-39.07-.6-48.96-.19-14.72-2.26-27.87,4.21-21.44Z"/>
          <path class="cls-3" d="M29.33,395.8c.08,3.89-.66,8.14-.6,12.17-2.57,2.31-.04,2.71,0,2.9,1.69,8.35,2.39,38.15,4.21,54.17,1.93,16.95,5.06,33.95,8.43,50.7-.61.71-1.18,1.63-1.81,2.32-4.19,2.91-3.05-3.42-3.61-6.37-4.35-22.88-5.93-46.36-7.82-69.53-1.23-15.1-1.63-30.34-1.81-45.48-8.81-19.34-7.77-33.8-.9-4.92,1.6-9.35.4-22.42,2.71-15.93.78,2.2-.1,14.4,0,18.54,0,.31,1.2,1.36,1.2,1.45Z"/>
          <path class="cls-27" d="M23.31,353.5c.15-1.59-.49-2.35-.6-3.77.1-.52.89.42,1.2-1.45q.9,12.89,1.81,25.78c-3.26-6.26-3.05-13.88-2.41-20.57Z"/>
          <path class="cls-16" d="M30.53,339.59c-.26,1.68-.14,3.31-2.41,2.9-2.28-2.69-4.73-2.85-4.81-3.19-.19-.77,8.59-8.38,7.22.29Z"/>
          <path class="cls-26" d="M29.93,352.92c-.27,10.35-.36,1.67-.6-3.19-.02-.44-1.18-.14-1.2-.58-.01-.29,1.6-2.42,1.2-4.35.92,2.7.67,5.36.6,8.11Z"/>
          <path class="cls-4" d="M33.54,395.22c-.22.51-.21,1.6-1.81,1.74-.09-1.99,1.55-1.62,1.81-1.74Z"/>
          <path class="cls-4" d="M46.18,511.1l-.6,1.16c-.59.36-2.32,1.62-2.41,1.74-2.56-.34,0-1.86,0-2.03.02-17.66-4.87-42.2-6.02-62.87-.52-9.41-.81-18.68-.6-28.1,0-.45,1.18.02,1.2-.87.07-2.7.5-5.48.6-8.11.92-.14,5.51-.96,5.72-1.16,1.14-1.12.98-27.38.9-31.29-.1-4.75-2.69-3.43,0-9.85h.6c-.07,47.12-.44,94.26.6,141.37Z"/>
          <path class="cls-16" d="M45.57,264.85c0,34.96.05,69.92,0,104.87h-.6l-7.22-8.11c-.34-31.49-.19-62.95,0-94.44,3.79-.32,5.22-3.46,7.82-2.32Z"/>
          <path class="cls-7" d="M44.97,369.72c-2.69,6.42-.1,5.1,0,9.85-10.12-3.65-7.14-10.04-7.22-17.96l7.22,8.11Z"/>
          <path class="cls-17" d="M38.35,232.98c.08-6.55-.11-13.14,0-19.7,2.88,1.24,6.74,20.59,6.02,21.73l-6.02-2.03Z"/>
          <path class="cls-23" d="M37.75,198.8c.16-7.67.5-15.54,1.2-23.18,9.21,6.49,2.92,7.35,2.41,9.56-1.84,7.98,4.01,16.22-3.61,13.62Z"/>
          <path class="cls-17" d="M45.57,264.27c0,.19,0,.39,0,.58-2.6-1.14-4.04,2-7.82,2.32.02-2.7-.02-5.41,0-8.11l6.92-4.06.9,9.27Z"/>
          <g>
            <path class="cls-4" d="M38.95,175.62c-.7,7.63-1.05,15.51-1.2,23.18-.1,4.81.68,9.79.6,14.49-.11,6.56.08,13.15,0,19.7-.11,8.69-.53,17.38-.6,26.07-.02,2.7.02,5.41,0,8.11-.19,31.49-.34,62.95,0,94.44.09,7.92-2.9,14.31,7.22,17.96.08,3.9.24,30.17-.9,31.29-.2.2-4.8,1.02-5.72,1.16.1-2.58-.12-17.31-1.5-17.96-.48-.23-2.67.86-3.31,1.16.38-.89-.9-1.4-.6-2.03,6.97-.44,7.99-11.22,3.61-14.49-.51-10.33-1.35-20.66-1.81-31-.14-3.11-.53-6.12-.6-9.27-.41-17.75,1.09-35.56,1.2-53.31.11-17.97.64-35.92.6-53.88,0-1.97.03-3.79,0-5.79-.13-8.79-.05-17.57,0-26.36-3.35,2.37-.96-14.69,0-23.47.45-4.1,2.1-20.72,3.61-23.47.58-1.06,3.33-1.41,3.61-2.32.33-1.07-1.24-3.3-1.2-3.48,2.99-16.01,3.44-4.64,3.01,3.48-5.6,5.4-3.15,11-3.61,13.91-.1.63-1.58,2.87-2.41,11.88Z"/>
            <path class="cls-15" d="M35.64,343.65c.1-.06,1.29.78.6,1.74-1.1,1.55-1.27-1.37-.6-1.74Z"/>
          </g>
          <path class="cls-14" d="M37.75,137.96c-1.44,12.7,1.12,11.05-3.61,9.27.18-3.66-.69-18.45,3.61-9.27Z"/>
          <path class="cls-4" d="M37.75,420.13c-.02.89-1.19.42-1.2.87-.21,9.42.08,18.69.6,28.1-2.21.4-.74-2.55-1.2-4.92-.09-.47-1.14-.12-1.2-.58-.15-1.06.37-5.63,0-8.11-.85-5.7-7.04-23.28,3.01-15.35Z"/>
          <path class="cls-32" d="M28.72,410.86c-.04-.18-2.57-.59,0-2.9,0,.22.58.64,0,2.9Z"/>
        </g>
      </g>
      <g>
        <g>
          <path class="cls-21" d="M368.93,13.97c.04,1.35-.02,2.7,0,4.06.04,2.51-.03,5.02,0,7.53l-1.26-2.61v8.69c-.32.63-.46-.37-1.9-.29l-6.95-8.11c0-.22-1.73-1.06-1.26-4.35,7.76-14.43,3.21-5.84-.95-2.03-.04.04-.48-.68-.95-.58.98-2.52,3.29-3.21,1.9-3.48,1.19-1.22,2.46-2.51,3.16-4.06,2.99-1.58,5.56-5.53,8.22-7.53.09,4.24-.12,8.5,0,12.75Z"/>
          <path class="cls-27" d="M368.93,25.56c.06,5.02-.03,10.04,0,15.06,1.05,172.65-.58,345.33-.63,517.99l-1.26,1.16c-1.84.59-3.88.53-5.69,1.16h-22.75c0-.39-.15-1.06.32-1.16,4.87-1.06,21.22,1.55,28.44-1.16,1.02-.72-.45-1.24-.32-1.74,2.91-10.58-.88-46,.63-59.39-.41-1.05-6.08,5.67-6.32,6.08.55-2.25-11.1,3.15-11.37,2.61-1.93-3.8,12.24-3.21,10.43-6.66-1.17-.31-2.02.92-3.16.58-11.6-3.45,3.18-.36,4.11-4.92-5.63,1.39-16.5-.65-3.48-2.03.24-.03,1.55,3.26.32-2.03-5.05.1-5.64-1.37-9.48-3.19.1-1.24-1.22-1.61-.32-2.32l5.37-.87c-1.28-1.13-4.73-9.17-3.48-8.98,4.46,13.8,18.64,8.38-.32,11.3,10.57,7.13,14.77-3.59,7.58-11.3,4.17-2.98,6.08-4.98,6.32-9.85.13-2.57-.51-21.43-1.26-22.31-.3-.35-8.15.23-6.32-4.64,1.49-3.97,8.86,4.59,6.32-6.66,1.6-2.73-3.63-13.38-2.53-15.35.46-.83,5.9.56,3.16-13.33-.11-.54-1.87-2.45-1.9-2.61-.76-4.28-1.55-8.07-1.26-12.46-12.73-11.58-1.08-2.43-.32-2.61,1.48-.35,4.43-7.68,4.74-11.59.07-.85-1.27-.43-1.26-.87.04-5.84,3.12-10.92-1.9-.29-.9-1.59-.79-3.52-1.26-5.21-1.36-9.19,1.54-20.53-6.95-27.23l-1.26-.87c-.32-1.2.63-1.54.63-2.03.03-4.38-.05-31.22.63-32.74,1.17-2.58,10.39-4.94,8.85,13.91-.76,2.41-3.29-.05-4.42,1.16-1.02,1.09,5.1,20.81,7.27,25.2l.95-.87-5.69-22.02c6.2,1.35,3.89-16.48,2.53-18.54-2.13-3.22-6.34-3.21-9.48-1.16-1.7-9.47,3.62-13.61,8.22-8.69.36.39,1.12,4.43,1.26,4.64,5.95,8.44.21-6.63-1.9-7.82,2.64.35,2.89-16.4,1.26-16.8.51-1.51,2.12-4.66.63-5.79.44-1.05,1.97-3.04,1.9-3.77-3.79-3.32-4.19-5.78-5.69-10.14,3.29-.3-5.17-15.86,3.48-13.33,1.22.36,2.87,7,4.74,4.35.98-1.39-1.9-4.39-1.9-4.64,0-.83,5.41-5.42-5.06-13.91-.32-1.09,4.52-6.25,3.16-12.17h-1.26c2.6,8.48-4.07,6.52-9.48,15.93-.04-2.81.07-19.13.63-19.99,2.44-3.72,5.94,3.04,9.48,2.9-2.56-2.98-.65-3.23-4.42-6.08-.71-.54-5.43-.62,3.16-2.03.5-6.5-1.56-17.07,4.42-20.86-5.77-.09-8.79,4.51-4.42,4.06-2.98,5.62-6.33,10.36-5.06.58.33-2.55,2.77-5.67,5.69-6.37-2.5-4.25,3.17-1.99-.63-5.5-.11-.1-.57-1.13-.63-1.16,5.64-3.46-2.9-10.65,2.21-6.95,1.79-2.17-4.09-2.89-4.11-3.19-.04-.88,13.5-3.67-1.26-12.17l8.22,2.32c-13.37-8.15-5.61-3.93-5.06-5.79.26-.86-1.42-15.93-3.79-16.8,9.5-4.56-1.01-1.76-1.9-2.03,5.4-6.9,6.86-1,3.79-13.62,6.1.08-2.3-2.44,3.16-11.01-.42-.72-1.8.12-3.79.29-.23-1.57.32-3.88,0-5.21.94-.65,1.81-.53,1.9-.58,2.4-1.34,3.42-20.17,2.21-20.28-.45-.04-2.82,4.38-1.58-2.32.01-.07.54.04,1.26-.87,1.29-10.51-3.38-10.92-6.32-20.28,1.17-1.75,4.38,5.73,7.58-9.27-6.78,5.41-7.58-1.23-6.95-2.32,1.81-3.1-.66,6.9,8.22-1.16-5.69-.34-12.02-4.42-2.53-2.9-6.69-2.69-3.3-10.44-3.16-15.93,2.46,2.03,2.82,5.43,6.95,5.21,1.43-.08,1.58.92,1.9.29v-8.69l1.26,2.61Z"/>
          <path class="cls-9" d="M367.03,556.87c-2.93-2.96-11.43-8.26-10.74-11.59.3-1.47,4.26-7.76,5.06-8.69.04-.04.29,1.16.95.58.96-.85-1.66-4.03-2.21-8.69,1.37-1.79,1.9-5.36,1.9-7.53,4.7-5.76-5.48-9.11-.63-17.38.24-.41,5.91-7.13,6.32-6.08-1.52,13.39,2.27,48.81-.63,59.39Z"/>
          <path class="cls-27" d="M350.6,515.15c-.23,3.82,2.12.16,3.48,0,8.55-.99,5.25,6.97,6,13.33.55,4.66,3.17,7.84,2.21,8.69-.66.58-.91-.62-.95-.58-1.63-6.31-6.93-2.71-7.58,7.53-2.93-1.35-3.55-2.64-3.16-5.79,0-.06,1.19.2,1.26-.29,1.38-8.8,4.69-18.78.95-19.41-5.8-.97-2.71,16.51-3.48,19.7-.53.81,1.21,2.95-3.16.58,1.02-1.23,0-1.09,0-1.74-.06-5.13,1.32-10.46.63-15.64.06-1.35-.08-2.71,0-4.06,5.43,3.02,2.05-.87,2.53-2.03.22-.52,1.22-.21,1.26-.29Z"/>
          <path class="cls-10" d="M350.6,538.33c-.38.03-1.23-.06-1.26,0,.77-3.19-2.33-20.67,3.48-19.7,3.74.63.43,10.61-.95,19.41-.08.49-1.26.23-1.26.29Z"/>
          <path class="cls-10" d="M361.34,536.59c-.8.94-4.75,7.23-5.06,8.69-.98-.15-1.64-.75-2.53-1.16.65-10.24,5.96-13.84,7.58-7.53Z"/>
          <path class="cls-22" d="M358.82,23.24c-.04.96.02,1.93,0,2.9-.14,5.49-3.53,13.24,3.16,15.93-9.49-1.52-3.16,2.56,2.53,2.9-8.88,8.06-6.41-1.94-8.22,1.16-.63,1.09.17,7.73,6.95,2.32-3.2,15-6.41,7.52-7.58,9.27,2.94,9.36,7.61,9.77,6.32,20.28-.72.91-1.25.8-1.26.87-1.21-1.64-1.48-1.01-3.16-1.16-2.25-.2-2.34.66-3.79,0,.04-10.46-.5-55.28,1.9-61.42.47-.1.91.62.95.58,4.16-3.81,8.71-12.41.95,2.03-.46,3.28,1.27,4.12,1.26,4.35Z"/>
          <path class="cls-9" d="M355.66,16.29c-2.39,6.13-1.86,50.96-1.9,61.42-.02,5.02-.14,10.05,0,15.06-.02-.06-1.1.22-1.26-.29-.66-2.04,1.27-6.5-1.26-6.08.17-22.11-.56-44.24.63-66.34l-1.9.87c.07-.11.54-2.06.63-2.32.23-.64.87-.93.63-1.74,3.09-.62,3.89-1.56,6.32-4.06,1.39.27-.91.96-1.9,3.48Z"/>
          <path class="cls-9" d="M365.77,31.35c-4.13.22-4.49-3.19-6.95-5.21.02-.96-.04-1.93,0-2.9l6.95,8.11Z"/>
          <path class="cls-9" d="M353.13,99.72c2.15,9.6.68,21.39.63,31.87-.05,10.91.04,21.82,0,32.74,11.44,8.08,2.32.74-.63,5.79-4.74,8.13,3.61-.26,4.11-.29,1.59-.09,2.54,2.71,2.21,3.77-.32,1.01-8.83-.17-6.95,4.64,1.24,3.16,2.52-4.95,8.22-2.03.06.03.52,1.06.63,1.16-2.79-.41-6.82,1.16-7.58,3.77-.38,1.32-.86,26.12,0,27.23.39.51,5.23.82,4.42-.87,3.77,2.85,1.86,3.1,4.42,6.08-3.54.14-7.04-6.62-9.48-2.9-.56.86-.67,17.18-.63,19.99-.23.4.75,2.62-2.53,2.32-.02-17.77-.07-35.54,0-53.31.03-7.81-.68-15.72-.63-23.47,0-.16,1.26-2.74,1.26-2.9.12-18.26.45-36.5.63-54.75,1.65-1.08.96.04,1.9,1.16Z"/>
          <path class="cls-27" d="M358.82,414.92c-.66,1.38-1.38,2.78-1.26,4.35.13,1.81,4.81,11.96,5.06,13.04,2.54,11.25-4.83,2.69-6.32,6.66-1.83,4.87,6.02,4.29,6.32,4.64.75.88,1.39,19.74,1.26,22.31-2.66,1.1-2.37,7.69-7.9,6.95-7.38-.98,1.97-4.57,2.84-8.98.94-4.76-5.66,6.08-7.58-8.69-.31-2.38,2.2-45.57,3.16-47.8,2.25.63,1.52,6.22,4.42,7.53Z"/>
          <path class="cls-10" d="M358.82,254.42c-2.13-6.23-3.21-9.87-1.9-16.51.1-.49,1.25-.23,1.26-.29.17,1.47,4.25.26,6.32,1.45.3-.64-3.03-7.51-3.79-8.4-.66-.77-.47-2-2.84-2.32-4.96,8.61-8.98,35.69,4.11,36.21-5.14.75-11.33,11.42-10.11,15.93-.55-.35-1.16-.7-1.9-.58-.11-15.64.02-31.29,0-46.93,3.28.31,2.3-1.92,2.53-2.32,5.41-9.41,12.08-7.45,9.48-15.93h1.26c1.36,5.92-3.48,11.08-3.16,12.17,10.46,8.49,5.06,13.08,5.06,13.91,0,.25,2.88,3.24,1.9,4.64-1.87,2.66-3.52-3.99-4.74-4.35-8.64-2.53-.19,13.02-3.48,13.33Z"/>
          <path class="cls-21" d="M360.71,230.67c-2.06-.87-1.09,1.28-2.53,6.95-.01.06-1.17-.2-1.26.29-1.31,6.65-.24,10.28,1.9,16.51,1.49,4.36,1.9,6.82,5.69,10.14.08.73-1.46,2.71-1.9,3.77-3.83,9.23-5.89,6.7-6.32,7.24-.81,1.02,2.1,9.13,5.69-1.45,1.63.4,1.38,17.16-1.26,16.8-3.11-1.76-5.56.23-8.22,1.45-.72-3.78,3.23-9.46-.63-11.88-1.22-4.51,4.98-15.18,10.11-15.93-13.09-.52-9.07-27.6-4.11-36.21,2.37.31,2.18,1.54,2.84,2.32Z"/>
          <path class="cls-9" d="M351.87,280.49c3.86,2.41-.08,8.1.63,11.88,2.65-1.22,5.11-3.21,8.22-1.45,2.11,1.2,7.85,16.27,1.9,7.82-.14-.2-.9-4.25-1.26-4.64-4.59-4.91-9.91-.78-8.22,8.69,3.14-2.05,7.35-2.07,9.48,1.16,1.36,2.06,3.68,19.9-2.53,18.54l5.69,22.02-.95.87c-2.17-4.39-8.28-24.12-7.27-25.2,1.13-1.21,3.66,1.25,4.42-1.16,1.54-18.85-7.68-16.49-8.85-13.91-.69,1.51-.6,28.36-.63,32.74-2.66-.18-.54,2.54-.63,4.92-.14,3.56-1.82,10.22-1.9,12.46h-.63c.12-.29.39-5.29-1.26-4.64,1.71-3.46,2.91-7.86,1.26-11.59,1.43-.84,1.19-2.21,1.26-3.48,1.03-18.44-.5-37.17-.63-55.62.73-.12,1.34.23,1.9.58Z"/>
          <path class="cls-7" d="M349.34,462.43c.06.49,2.25,9.14,2.53,9.56,1.01,1.5,4.26,2.23,5.69,3.77,7.18,7.71,2.99,18.43-7.58,11.3,18.95-2.92,4.78,2.5.32-11.3-1.25-.19,2.2,7.85,3.48,8.98l-5.37.87c-.91.7.42,1.08.32,2.32-.73,8.68-.11,19.54-.63,28.68-.03.46-1.21-.03-1.26.87-.08,1.34.06,2.71,0,4.06l-1.26-8.11c.88-5.4,1.63-17.2,1.9-23.18.42-9.58-1.58-28.17,1.9-27.81Z"/>
          <path class="cls-27" d="M361.34,503.56c-4.85,8.27,5.33,11.62.63,17.38-.01-3.82-2.73-13.14-9.16-9.85-2.23,1.14-2.1,3.85-2.21,4.06-.04.08-1.05-.23-1.26.29-.48,1.16,2.9,5.05-2.53,2.03.06-.9,1.24-.41,1.26-.87.52-9.14-.1-20,.63-28.68,3.84,1.81,4.42,3.29,9.48,3.19,1.23,5.28-.07,2-.32,2.03-13.02,1.38-2.16,3.42,3.48,2.03-.93,4.57-15.7,1.47-4.11,4.92,1.14.34,1.99-.89,3.16-.58,1.81,3.46-12.36,2.86-10.43,6.66.28.54,11.93-4.86,11.37-2.61Z"/>
          <path class="cls-21" d="M361.34,177.36c3.8,3.51-1.87,1.25.63,5.5-2.92.7-5.36,3.82-5.69,6.37-1.27,9.78,2.08,5.05,5.06-.58-4.36.46-1.35-4.14,4.42-4.06-5.98,3.79-3.93,14.36-4.42,20.86-8.59,1.41-3.87,1.49-3.16,2.03.81,1.69-4.03,1.38-4.42.87-.86-1.11-.38-25.92,0-27.23.76-2.61,4.79-4.17,7.58-3.77Z"/>
          <path class="cls-27" d="M353.13,344.23c1.73,7.35,3.65,9.05,3.79,9.56.19.7-.96,1.06-.63,2.32.04.16,1.85,2.73,1.9,2.9.16.61-.23,3.73,0,4.64.12.48,1.14.1,1.26.58.15.59-1.07,1.35-.63,2.9.14.49,1-.09,1.26.87.48,1.69.36,3.62,1.26,5.21-.72,1.53-1.68,7.93-5.69,4.35-2.67-2.39-4.69-30.66-3.79-33.03.17-.44.82-.29,1.26-.29Z"/>
          <path class="cls-21" d="M364.5,374.36c-.31,3.91-3.26,11.24-4.74,11.59-.77.18-12.41-8.98.32,2.61-.29,4.39.51,8.18,1.26,12.46-2-1.3-4.37-1.71-5.69.58-4.03.89.87-4.96,0-12.46-2.71-1.11-4.06-7.47-5.69-11.3h.63c.64,2.36,3.92,4.51,6.64,4.06,4.51-.75,5-8.65,7.27-7.53Z"/>
          <path class="cls-6" d="M352.5,337.86c0,.49-.95.83-.63,2.03l1.26.87c.15,1.08-.23,2.52,0,3.48-.44,0-1.1-.15-1.26.29-.9,2.36,1.12,30.64,3.79,33.03,4,3.59,4.97-2.82,5.69-4.35,5.01-10.63,1.94-5.55,1.9.29,0,.44,1.33.02,1.26.87-2.27-1.12-2.76,6.78-7.27,7.53-2.72.45-6-1.7-6.64-4.06-.3-1.1-.72-19.86-.63-22.6.08-2.23,1.76-8.9,1.9-12.46.09-2.38-2.03-5.11.63-4.92Z"/>
          <path class="cls-21" d="M357.55,77.7l2.53,23.76c-.09.05-.96-.08-1.9.58-.12-.49-3.44-6.65-4.42-9.27-.14-5.02-.02-10.05,0-15.06,1.46.66,1.54-.2,3.79,0Z"/>
          <path class="cls-24" d="M361.34,401.01c.03.15,1.79,2.07,1.9,2.61,2.74,13.88-2.7,12.5-3.16,13.33-1.11,1.98,4.13,12.62,2.53,15.35-.24-1.08-4.92-11.22-5.06-13.04-.11-1.57.6-2.96,1.26-4.35,5.1,2.31,1.53-7.7,0-9.27-2.17-2.23-5.46-.07-3.16-4.06,1.32-2.29,3.69-1.88,5.69-.58Z"/>
          <path class="cls-9" d="M360.71,78.86c-1.24,6.7,1.13,2.28,1.58,2.32,1.21.11.19,18.94-2.21,20.28l-2.53-23.76c1.68.15,1.95-.49,3.16,1.16Z"/>
          <path class="cls-10" d="M360.08,367.98c-.27-.95-1.13-.38-1.26-.87-.43-1.54.78-2.31.63-2.9-.12-.48-1.14-.1-1.26-.58-.23-.91.16-4.03,0-4.64-.04-.16-1.85-2.73-1.9-2.9-.33-1.25.82-1.62.63-2.32-.14-.51-2.06-2.21-3.79-9.56-.23-.96.15-2.4,0-3.48,8.49,6.7,5.59,18.04,6.95,27.23Z"/>
          <path class="cls-5" d="M353.76,92.77c.98,2.62,4.31,8.78,4.42,9.27.32,1.33-.23,3.65,0,5.21-.06,0,.22,1.67-.63.87-1.02-3.21-2.17-5.71-4.42-8.4-.94-1.12-.24-2.24-1.9-1.16.04-4.06-.03-8.11,0-12.17,2.53-.42.61,4.04,1.26,6.08.16.51,1.24.23,1.26.29Z"/>
          <path class="cls-10" d="M361.98,274.12c-3.59,10.58-6.5,2.47-5.69,1.45.43-.54,2.49,1.99,6.32-7.24,1.49,1.14-.12,4.29-.63,5.79Z"/>
          <path class="cls-10" d="M346.81,521.53c.69,5.19-.69,10.51-.63,15.64-.1-.9-1.21-1.09-1.26-1.16-.97-1.16-3-4.35-3.79-5.21,1.12-5.4,3.58-12.2,4.42-17.38l1.26,8.11Z"/>
          <path class="cls-10" d="M361.98,520.95c0,2.17-.52,5.74-1.9,7.53-.75-6.36,2.55-14.31-6-13.33-1.36.16-3.7,3.82-3.48,0,.11-.2-.02-2.91,2.21-4.06,6.43-3.29,9.15,6.03,9.16,9.85Z"/>
          <path class="cls-24" d="M350.6,335.54c-.07,1.27.17,2.64-1.26,3.48-3.53-7.98-14.52-.37-15.17,10.72-.74,12.71,10.37,8.05,13.9.87,1.65-.66,1.39,4.34,1.26,4.64-2.32,5.58-12.11,4.31-12.64,4.92-.14.16,1.39,3.66,1.58,3.77.47.28,2.52-2.22,6,1.16,1.08,10.53.15.44-4.74,1.16-1.72.25-.29,1.65-.32,1.74-.67,1.82-1.17,3.86-1.26,5.79-.18-.06-.44.05-.63,0-3.29-10.27-8.26-18.86-5.69-29.84,1.98-8.47,10.74-17.04,18.96-8.4Z"/>
          <path class="cls-14" d="M349.97,355.24c-.09,2.73.34,21.5.63,22.6h-.63c-1.2-2.81-4.21-11.32-5.69-12.75-3.48-3.37-5.53-.88-6-1.16-.18-.11-1.72-3.61-1.58-3.77.53-.61,10.32.66,12.64-4.92h.63Z"/>
          <path class="cls-27" d="M349.97,424.19c-6.01-.54-.54-14.66-5.06-13.91.09-1.37-.61-5.13.95-5.79,5.62-2.4,4.16,9.77,4.11,19.7Z"/>
          <path class="cls-17" d="M358.82,405.65c1.53,1.57,5.1,11.58,0,9.27-2.91-1.32-2.17-6.9-4.42-7.53.91-2.11,2.01-2.31,4.42-1.74Z"/>
          <g>
            <path class="cls-3" d="M349.97,377.83c1.63,3.83,2.98,10.19,5.69,11.3.87,7.49-4.03,13.35,0,12.46-2.3,3.99.99,1.83,3.16,4.06-2.41-.57-3.52-.37-4.42,1.74-.96,2.23-3.47,45.42-3.16,47.8,1.93,14.77,8.52,3.93,7.58,8.69-.87,4.41-10.22,8-2.84,8.98,5.53.73,5.24-5.85,7.9-6.95-.24,4.87-2.14,6.87-6.32,9.85-1.43-1.54-4.68-2.27-5.69-3.77-.28-.42-2.47-9.07-2.53-9.56-1.41-11.2.57-26.64.63-38.24.05-9.93,1.52-22.1-4.11-19.7-1.56.66-.85,4.42-.95,5.79-.67,9.78-.23,19.75-.63,29.55l-1.9,1.74c-.07-1.57-.38-4.08-2.53-3.48.32-1.43,1.39-3.17,0-3.48,2.06-6.78,2.57-12.11,3.16-19.12.7-8.44,1.54-33.84.63-41.14-.48-3.88-2.13-9.15-4.42-6.37.03-.08-1.4-1.48.32-1.74,4.89-.72,5.82,9.38,4.74-1.16,1.47,1.43,4.49,9.94,5.69,12.75Z"/>
            <path class="cls-27" d="M350.6,384.21c2.31,6.4,4.17,6.16.95,19.12-8.43-1.72-6.24-3.24-6-17.38l5.06-1.74Z"/>
            <path class="cls-27" d="M350.6,384.21l-5.06,1.74c.07-4.24-.31-8.53.32-12.75.93,3.84,3.43,7.37,4.74,11.01Z"/>
            <path class="cls-22" d="M343.65,374.36h-.63c-1.25-.07-2.55.1-3.79,0-1.72-.14-1.2-.56-1.26-.58.1-1.94.59-3.97,1.26-5.79,2.29-2.78,3.94,2.49,4.42,6.37Z"/>
          </g>
          <path class="cls-16" d="M360.71,230.67c.76.89,4.1,7.77,3.79,8.4-2.06-1.19-6.14.02-6.32-1.45,1.44-5.67.47-7.83,2.53-6.95Z"/>
          <g>
            <path class="cls-22" d="M360.71,176.2c-5.69-2.92-6.98,5.18-8.22,2.03-1.88-4.81,6.63-3.62,6.95-4.64.33-1.05-.63-3.86-2.21-3.77-.5.03-8.85,8.42-4.11.29,2.95-5.06,12.07,2.29.63-5.79.04-10.91-.05-21.82,0-32.74.42.04.98-.09,1.26,0,.88.27,11.39-2.54,1.9,2.03,2.37.87,4.05,15.94,3.79,16.8-.55,1.86-8.32-2.35,5.06,5.79l-8.22-2.32c14.76,8.49,1.22,11.29,1.26,12.17.01.3,5.9,1.02,4.11,3.19-5.12-3.7,3.43,3.49-2.21,6.95Z"/>
            <path class="cls-9" d="M357.24,138.54l1.9,6.37c-1.08.37-3.46-5.47-1.9-6.37Z"/>
          </g>
          <g>
            <path class="cls-16" d="M358.19,107.25c1.99-.17,3.37-1.01,3.79-.29-5.46,8.57,2.94,11.09-3.16,11.01,3.06,12.62,1.61,6.72-3.79,13.62-.29-.09-.85.04-1.26,0,.05-10.48,1.52-22.27-.63-31.87,2.25,2.7,3.41,5.2,4.42,8.4.85.8.58-.86.63-.87Z"/>
            <path class="cls-27" d="M357.24,121.74c.81-.16,1.11.48,1.58.87,2.09,9.62-4.3-.34-1.58-.87Z"/>
          </g>
        </g>
        <g>
          <path class="cls-13" d="M343.02,374.36c.39,13.75-7.11,27.33,0,41.14-.59,7.01-1.1,12.34-3.16,19.12-1.9,6.28-7,13.99-8.22,20.86-.09-.05-.78.08-1.9-.58,1.43-27.03,4.34-53.88,9.48-80.54,1.25.1,2.54-.07,3.79,0Z"/>
          <path class="cls-31" d="M343.02,415.5c-7.11-13.81.39-27.38,0-41.14h.63c.9,7.29.07,32.7-.63,41.14Z"/>
          <path class="cls-17" d="M339.86,438.09c-1.51,6.71-3.19,12.33-6.32,18.54-1.56.24-1.8-1.11-1.9-1.16,1.22-6.87,6.31-14.58,8.22-20.86,1.39.31.32,2.05,0,3.48Z"/>
          <path class="cls-13" d="M349.97,179.68c-.07,17.77-.02,35.54,0,53.31.02,15.64-.11,31.29,0,46.93.13,18.45,1.66,37.18.63,55.62-8.22-8.64-16.97-.07-18.96,8.4-2.57,10.98,2.4,19.57,5.69,29.84h-.63c-1.03-.13-5.11-16.86-6.32-11.88-.43,1.8.68,31.2.63,36.79h-4.42c.61-11.2.71-22.4,1.26-33.61.18-3.65-.22-7.36,0-11.01,3.59.3.99-1.63,1.26-3.19,1.22-7.04,5.84-26.31,16.11-19.99.58-.85,2.74-2.17,2.84-2.32,3.36-4.76.19-23.26-3.16-20.57-1.47,5.57-3.93,10.59-3.79,16.51-2.08-.48-4.21-.84-6.32-1.16.19-.56,3.37-7.6.63-5.5q-3.32,7.68-6.64,15.35c-2.33-3.75,6.02-11.86-3.48-11.01-.04-18.13-.92-46.2,0-62.29.03-.55,1.84.88,1.9,0,.73-11.56-1-56.29,0-59.1.21-.58,1.77-.15,1.9-.29,1.24,23.86-1.04,47.72.63,71.56,6.23.11-3.73,22.32,1.9,29.26-.91,6.15-1.1,12.69-1.9,18.83h1.26c5.16-26.43,10.25-52.81,14.53-79.38.19-24.55-2.02-6.86-3.79,4.92-5.5-3.93-5.92,12.76-8.22,21.73-1.39-22.2,17.07-46.55,14.22-72.72-1.95,4.43-3.42,9.29-4.74,13.91-1.35.77-2.39,1-1.26-.58,2.64-9.04,6.39-19,6.95-28.39h1.26Z"/>
          <path class="cls-31" d="M327.85,103.78c0-.12-1.25-1.79-1.26-2.03-.35-4.78-.1-9.7-.63-14.49-.01-.1-1.25-1.63-1.26-1.74-.22-1.89,1.29-10.06-1.9-10.72v-26.07c.21-.92,1.21-1.25,1.9-1.74,6.14,9.66-4.95,23.2,9.48,24.62-1.9,10.6-2.65,22.53-6.32,32.16Z"/>
          <path class="cls-14" d="M338.6,157.08c-1.08,13.03-2.83,26.01-2.53,39.11-.81,1.1-2.03,1.37-3.16,2.03-.26.15-1.83-.1-2.84,0-.8.92-.86,2.22-.95,2.32-.12.14-1.69-.29-1.9.29-1,2.81.73,47.54,0,59.1-.06.88-1.86-.55-1.9,0-.92,16.09-.04,44.16,0,62.29.02,7.72-.07,15.45,0,23.18-2.3-7.75,1.76-25-2.53-24.91.04-48.87.09-97.72,0-146.59,3.73-.87,1.58,18.35,2.53,21.15.18.54,2.52,1.98,3.16,2.03,4.85.38,3.3-3.87,3.79-6.66.08-.47,1.2-.12,1.26-.58.12-.89-.5-12.52,0-17.96,1.8-4.69.83-8.76,1.26-13.33.04-.45,1.22-.13,1.26-.58.03-.29-1.02-1.94-.63-5.79.05-.45,1.22-.13,1.26-.58.03-.29-1.13-1.05-.63-5.79.05-.45,1.22-.13,1.26-.58.03-.31-.97-1.62-.63-4.64.05-.46,1.21-.12,1.26-.58.03-.29-1.07-2.1-.63-5.79.05-.46,1.21-.12,1.26-.58.17-1.44-2.2-5.02.63-5.79-.52-7.57,1.26-15.51,3.16-22.6-1.26,17.25-2.35,34.59-3.79,51.86Z"/>
          <path class="cls-30" d="M348.71,179.68c-.56,9.4-4.31,19.35-6.95,28.39-.04.13-1.09-.65-1.9,2.03-.21.7-.54,6.06-.63,6.37-.05.16-1.86,2.73-1.9,2.9-.25,1.06,1.18,1.7-1.9,5.5-7.58,2.05.11-12.25-2.53-26.65,1.13-.66,2.35-.93,3.16-2.03-.3-13.1,1.44-26.08,2.53-39.11,2.75.75,6.65-.17,7.9,2.9,1.36-10.1,2.43,16.04,2.21,19.7Z"/>
          <path class="cls-13" d="M327.85,103.78c.71,10.76,1.46,47.72,1.26,59.39,0,.13-1.26,2.19-1.26,2.32-.22,10.47-.35,21.13.63,31.58-.64-.05-2.98-1.49-3.16-2.03-.95-2.8,1.21-22.02-2.53-21.15-.06-33.03.04-66.05,0-99.08,3.18.66,1.68,8.83,1.9,10.72.01.1,1.25,1.63,1.26,1.74.53,4.79.29,9.71.63,14.49.02.24,1.26,1.91,1.26,2.03Z"/>
          <g>
            <path class="cls-30" d="M351.23,86.39c-.03,4.06.04,8.11,0,12.17-.18,18.25-.51,36.49-.63,54.75,0,.16-1.26,2.74-1.26,2.9-.05,7.74.66,15.66.63,23.47h-1.26c.22-3.66-.85-29.8-2.21-19.7-1.25-3.07-5.15-2.14-7.9-2.9,1.44-17.26,2.53-34.61,3.79-51.86-1.9,7.09-3.68,15.02-3.16,22.6-2.83.77-.46,4.36-.63,5.79-.05.46-1.21.12-1.26.58-.44,3.7.66,5.5.63,5.79-.05.46-1.21.12-1.26.58-.34,3.02.66,4.33.63,4.64-.05.45-1.22.13-1.26.58-.49,4.74.66,5.5.63,5.79-.05.45-1.22.13-1.26.58-.39,3.86.66,5.5.63,5.79-.04.45-1.22.13-1.26.58-.43,4.56.53,8.64-1.26,13.33-.5,5.44.12,17.07,0,17.96-.06.46-1.18.11-1.26.58-.49,2.79,1.05,7.05-3.79,6.66-.98-10.45-.85-21.11-.63-31.58,0-.13,1.26-2.19,1.26-2.32.19-11.67-.55-48.62-1.26-59.39,3.67-9.63,4.42-21.55,6.32-32.16-14.43-1.42-3.34-14.97-9.48-24.62,1.5-1.07,24.3-24.58,25.28-26.07l1.9-.87c-1.19,22.1-.46,44.23-.63,66.34Z"/>
            <path class="cls-31" d="M338.28,89.29q-1.9,15.93-3.79,31.87c-1.82.01,2.06-15.18-.32-17.09,2.23.58,2.83-14.93,4.11-14.77Z"/>
          </g>
          <path class="cls-14" d="M337.96,373.78c.07.02-.45.44,1.26.58-5.14,26.66-8.05,53.51-9.48,80.54-.59-.35-1.38-.75-1.9-1.16-1.41-18.31-.28-36.67-.63-55.04h3.79c-.04,4.31-1.36,11.04-.63,14.77,1.4,7.25,1.19-8.04,1.26-8.69.06-.46,1.21-.12,1.26-.58.06-.52-.91-1.22-.63-3.48.06-.46,1.2-.12,1.26-.58.07-.52-.93-1.25-.63-3.48.06-.46,1.2-.12,1.26-.58.14-1.03-.89-1.88-.63-4.06.67-5.73,3.12-11.73,3.16-18.25h.63c.2.05.45-.06.63,0Z"/>
          <path class="cls-7" d="M327.85,453.74c.51.41,1.31.81,1.9,1.16,1.11.66,1.81.53,1.9.58.1.05.33,1.4,1.9,1.16-1.23,2.43-1.37,5.24-4.11,6.95-2.1-3.61-5.96-8.9-4.74-12.75.39.45,2.47,2.35,3.16,2.9Z"/>
          <g>
            <path class="cls-7" d="M349.97,424.19c-.06,11.6-2.04,27.04-.63,38.24-3.47-.36-1.47,18.23-1.9,27.81-4.38.83-1.73-2.98-2.53-4.92-2.64-6.42-4.4,6.86-.63,8.98-4.64,9.48-6.97,17.36-9.48,26.94l-2.53.87c-.76-.98-1.22-1.09-1.26-1.16-.38-.67-.99-1.04-1.26-1.74-.31-1.57,7.78-25.57,8.85-30.13,5.08-21.62,4.83-28.18,5.69-49.25.4-9.79-.03-19.76.63-29.55,4.52-.76-.95,13.37,5.06,13.91Z"/>
            <path class="cls-4" d="M338.6,489.08l-1.26-2.32c1.49-4.89,6.22-18.22.32-16.22-.15.05-1.42,2.26-1.58,2.61-.59,1.29-9.29,25.26-9.48,26.65-.43,3.22-.4,8.71,2.53,7.82-1,2.53-1.49,5.22-3.16,7.53-.56-.48-2.66-2.21-3.16-2.32v-27.23c16.18-12.49,20.41-32.73,0-6.95v-13.33q5.37-.14,10.74-.29c2.47-4.7,9.03-19.33,8.85-23.47l1.9-1.74c-.86,21.07-.61,27.63-5.69,49.25Z"/>
            <path class="cls-3" d="M342.39,441.57c.18,4.13-6.38,18.76-8.85,23.47q-5.37.14-10.74.29v-16.22c2.2-.11,1.81,1.64,1.9,1.74-1.22,3.85,2.64,9.14,4.74,12.75,2.74-1.71,2.88-4.52,4.11-6.95,3.13-6.21,4.81-11.83,6.32-18.54,2.15-.6,2.46,1.9,2.53,3.48Z"/>
            <path class="cls-4" d="M347.44,490.24c-.26,5.98-1.02,17.77-1.9,23.18-.84,5.18-3.3,11.99-4.42,17.38-.76-.83-3.22-2.67-6.32-6.37,2.78-4.47,9.84-26.97,9.48-30.13-3.76-2.12-2.01-15.4.63-8.98.8,1.95-1.86,5.76,2.53,4.92Z"/>
            <path class="cls-4" d="M334.8,524.42c-.11-.13-1.09-.45-2.53-2.32l2.53-.87c2.51-9.58,4.84-17.46,9.48-26.94.36,3.16-6.69,25.66-9.48,30.13Z"/>
            <path class="cls-3" d="M338.6,489.08c-1.07,4.56-9.16,28.55-8.85,30.13h-.63c-1.04-1.25-1.92-2.98-3.16-4.06,1.67-2.31,2.16-5,3.16-7.53,2.73-6.89,6.07-13.8,8.22-20.86l1.26,2.32Z"/>
            <path class="cls-7" d="M337.33,486.76c-2.15,7.06-5.48,13.97-8.22,20.86-2.93.89-2.96-4.61-2.53-7.82.19-1.39,8.89-25.36,9.48-26.65.16-.34,1.43-2.56,1.58-2.61,5.91-1.99,1.17,11.34-.32,16.22Z"/>
            <path class="cls-26" d="M322.8,485.6v-6.95c20.41-25.77,16.18-5.54,0,6.95Z"/>
          </g>
          <path class="cls-16" d="M327.22,398.69c.36,18.37-.78,36.73.63,55.04-.69-.55-2.77-2.45-3.16-2.9-.08-.1.3-1.84-1.9-1.74v-23.18c4.54,2.11,2.08-18.22,2.53-26.36.02-.43,1.26-.8,1.26-.87h.63Z"/>
          <path class="cls-31" d="M341.75,245.73c-1.38,9.15-2.19,18.38-3.79,27.52-1.65,9.41-4.92,18.6-6.32,28.1-5.62-6.94,4.34-29.15-1.9-29.26-1.68-23.84.61-47.7-.63-71.56.08-.1.14-1.4.95-2.32,1.01-.1,2.59.15,2.84,0,2.64,14.4-5.05,28.71,2.53,26.65,2.36,4.61.04,4.09,0,4.35-.29,1.94-.32,8.29-.63,11.01-.03.25-2.4-.13,0,4.06,2.46-11.89,4.87-23.92,8.22-35.63,1.32-4.62,2.79-9.47,4.74-13.91,2.85,26.16-15.6,50.52-14.22,72.72,2.3-8.97,2.71-25.65,8.22-21.73Z"/>
          <path class="cls-18" d="M325.32,345.39c.08,9.43-1.39,21.79,2.53,19.7-.56,11.2-.66,22.41-1.26,33.61,0,.07-1.24.43-1.26.87-.44,8.14,2.01,28.47-2.53,26.36.02-35.15-.03-70.3,0-105.45,4.29-.09.22,17.17,2.53,24.91Z"/>
          <path class="cls-20" d="M331.64,301.35c1.4-9.5,4.67-18.69,6.32-28.1,1.6-9.14,2.41-18.38,3.79-27.52,1.78-11.78,3.98-29.47,3.79-4.92-4.28,26.56-9.37,52.95-14.53,79.38h-1.26c.8-6.14.99-12.68,1.9-18.83Z"/>
          <path class="cls-13" d="M334.8,323.37c-5.3,16.12-5.83,11.8-6.95,30.71-.22,3.65.18,7.36,0,11.01-3.92,2.09-2.45-10.27-2.53-19.7-.07-7.72.02-15.45,0-23.18,9.49-.85,1.15,7.26,3.48,11.01q3.32-7.68,6.64-15.35c2.74-2.1-.45,4.94-.63,5.5Z"/>
          <path class="cls-31" d="M336.7,373.78c-.04,6.52-2.49,12.52-3.16,18.25-.26,2.18.77,3.02.63,4.06-.06.46-1.2.12-1.26.58-.3,2.23.7,2.95.63,3.48-.06.46-1.21.12-1.26.58-.28,2.26.69,2.95.63,3.48-.05.46-1.21.12-1.26.58-.08.65.14,15.94-1.26,8.69-.72-3.74.59-10.47.63-14.77.05-5.6-1.07-35-.63-36.79,1.2-4.99,5.29,11.75,6.32,11.88Z"/>
          <path class="cls-31" d="M341.12,324.53c3.01.69,6.21-.31,6.95,4.06-.1.15-2.26,1.46-2.84,2.32-10.27-6.32-14.89,12.95-16.11,19.99-.27,1.55,2.33,3.49-1.26,3.19,1.13-18.91,1.65-14.59,6.95-30.71,2.11.31,4.24.68,6.32,1.16Z"/>
          <path class="cls-31" d="M348.07,328.58c-.74-4.37-3.94-3.37-6.95-4.06-.14-5.93,2.32-10.94,3.79-16.51,3.35-2.69,6.52,15.81,3.16,20.57Z"/>
          <path class="cls-13" d="M341.75,208.07c-1.12,1.58-.09,1.35,1.26.58-3.34,11.71-5.75,23.74-8.22,35.63-2.4-4.19-.03-3.81,0-4.06.31-2.72.34-9.07.63-11.01.04-.26,2.36.26,0-4.35,3.08-3.8,1.64-4.44,1.9-5.5.04-.16,1.85-2.73,1.9-2.9.09-.31.42-5.67.63-6.37.8-2.68,1.86-1.9,1.9-2.03Z"/>
          <g>
            <path class="cls-13" d="M349.34,339.01c1.65,3.73.44,8.12-1.26,11.59-3.53,7.18-14.64,11.84-13.9-.87.65-11.09,11.64-18.7,15.17-10.72Z"/>
            <path class="cls-33" d="M342.07,339.59c3.56-.52,5.42,8.7.95,13.62-9.4,10.35-6.07-12.87-.95-13.62Z"/>
          </g>
        </g>
      </g>
      <g>
        <g>
          <path class="cls-13" d="M254.98.06c.69,2.88-3.81,2.44-2.6,4.06l11.57,2.32c28.08.05,56.43-.23,84.47,1.16.37.02-.57,1.12,6.65,1.74-64.89-.05-129.79.09-194.68,0-7.98-.01-31.85,2.29-38.18,0-.86-.31.87-4.62-16.78-3.48q-4.34,2.32-8.68,4.64c-18.94-2.23-75.69,1.12-86.78,0-.55-.06-2.11-3.18-2.02-.58C5.72,7.39,2.95,5.19,1,2.38c.02-.11-1.56-1.06.29-2.32C85.85.24,170.42-.14,254.98.06Z"/>
          <path class="cls-14" d="M368.96,1.22c-2.43,2.01-4.78,5.95-7.52,7.53-2.44,1.4-3.75.8-6.36.58-7.22-.62-6.28-1.72-6.65-1.74-28.04-1.39-56.39-1.11-84.47-1.16l-11.57-2.32c-1.21-1.61,3.29-1.18,2.6-4.06,36.93.09,73.86.56,110.79,0l3.18,1.16Z"/>
          <path class="cls-31" d="M355.07,9.33c2.61.22,3.93.82,6.36-.58-.64,1.54-1.81,2.84-2.89,4.06-2.23,2.49-2.95,3.43-5.79,4.06-7.29,1.6-59.46.53-72.32.58-3.28.01-6.56-.02-9.84,0-85.05.43-170.09.76-255.14.58h-1.16c-.51-1.37-2.21-2.74-2.31-2.9-.63-.97-1.11-1.09-1.16-1.16-.98-1.33-1.76-2.77-2.89-4.06-.09-2.6,1.48.52,2.02.58,11.09,1.12,67.84-2.23,86.78,0q4.34-2.32,8.68-4.64c17.65-1.14,15.92,3.17,16.78,3.48,6.33,2.29,30.21-.01,38.18,0,64.89.09,129.79-.05,194.68,0Z"/>
          <path class="cls-17" d="M270.6,17.44c1.61,1.98-3.92,2.82-5.5,2.9-11.2.58-43.01-.67-58.43-.58-14.5.09-29.19,1.16-43.68,1.16-.55,0-.78-.85-1.74-.58-8.29-.01-16.59.02-24.88,0-.58,0-1.16,0-1.74,0-15.68-.03-111.67.51-117.45-.58-1.28-.24-.97-.05-1.74-1.74,85.05.18,170.09-.15,255.14-.58Z"/>
        </g>
        <g>
          <path class="cls-23" d="M280.44,17.44c.07.54-.27,1.33.29,1.74,2.35,1.72,51.2.6,58.14.58-.33,3.14,11.17.27,2.02,4.06-20.39-1.9-43.88,4.79-61.62-1.16,3.45-5.27-2.74-.57-11.57,1.74-1.89.49-1.04,1.13-1.16,1.16-2.79.61-7.05-1.41-7.81,1.74-.81-.36-.97-2.13-1.74-2.32-1.8-.45-28.7-1.26-34.13-1.74-1.16.79-.79,1.57-.87,1.74-.07.15.07.4,0,.58-8.26-.97-17.05.53-24.59-3.48l-34.42-.58v-.58c14.49,0,29.18-1.07,43.68-1.16,15.42-.09,47.23,1.16,58.43.58,1.58-.08,7.1-.92,5.5-2.9,3.28-.02,6.56.01,9.84,0Z"/>
          <path class="cls-17" d="M352.18,18.6c-1.07.01-2.2,1.07-2.89,1.74-3.35-1.02-6.99-.59-10.41-.58-6.94.02-55.79,1.14-58.14-.58-.56-.41-.22-1.19-.29-1.74,12.86-.05,65.03,1.02,72.32-.58.22.81-.37,1.1-.58,1.74Z"/>
          <path class="cls-27" d="M134.65,20.34c6.91,10.86-22.77,5.52-23.72,4.35-.48-.59,1.34-2.48.29-3.77l-5.79,5.21c-3.95,0-8.25-1.15-12.15-1.16-9.91-.03-21.9,1.26-26.03,1.16-.17,0-2.72-1.73-2.89-1.74-15.68-.5-31.48.47-47.15-2.32.11-1.21-.91-1.15,0-2.32,5.77,1.09,101.76.55,117.45.58Z"/>
          <path class="cls-10" d="M352.18,18.6c-.08.25-.51,2.21-.58,2.32-.9,1.5-21.77,25-23.14,26.07-.63.49-1.54.82-1.74,1.74h-1.74c-32.87.35-65.77-.47-98.64,0-3.03.04-6.8,1.12-9.84,1.16-2.59.04-3.84-1.16-4.05-1.16-6.16.08-11.69,2.79-19.67,0-2.43,1.35-13.93,1.68-18.8,1.74-21.03.23-42.04-.08-63.06,0-.05-.48.22-1.56-.29-1.74-1.94-.67-33.29.77-41.08,0-.44-.04-2.28-1.57-2.89-2.32-3.58,5.55-18.88-.66-21.7,4.06-.43-1.91-9.57-8.91-11.57-11.01-.58-.61-1.18-1.16-1.74-1.74-4.87-5.09-9.34-10.75-14.46-15.64,15.67,2.79,31.47,1.82,47.15,2.32.17,0,2.72,1.73,2.89,1.74,4.13.1,16.12-1.19,26.03-1.16,3.9.01,8.2,1.16,12.15,1.16l5.79-5.21c1.05,1.29-.77,3.17-.29,3.77.95,1.18,30.63,6.52,23.72-4.35.58,0,1.16,0,1.74,0-1.39,7.79,1.31,8.58,13.6,7.53,6.02-.51,11.23-.69,11.28-7.53.96-.27,1.18.58,1.74.58v.58c-5.54,6.77,13.61,8.43,18.8,6.95.47.39.78,1.04,1.45,1.16,3.67,3.77,18.15,9.83,20.83,2.9l2.02,1.16,13.31-.58c1.64-2.27,1.66-5.06,2.6-7.53.07-.17-.07-.43,0-.58,2.49-.16.4,2.77.58,3.19,1.27,3.05,14.29-.18,15.91,2.61,3.44-5.25,39.47,6.41,28.06-5.21.12-.03-.73-.67,1.16-1.16,2.72,4.01,5.82.09,9.26,0-.43.72-3.1,5.82-2.89,6.08,26.77,5.01,23.28-2.02,24.59-2.03,1.24-.01.41,2.24.58,2.32,1.83.8,33.93-1.7,39.92,0,.94-.27,8.47-8.84,10.12-10.43.7-.67,1.82-1.73,2.89-1.74Z"/>
          <path class="cls-6" d="M110.93,50.47c-21.79.09-43.58.68-65.38.58h-.58v-.58c2.81-4.72,18.11,1.49,21.7-4.06.62.74,2.46,2.27,2.89,2.32,7.78.77,39.13-.67,41.08,0,.51.18.24,1.25.29,1.74Z"/>
          <path class="cls-27" d="M349.29,20.34c-1.66,1.59-9.18,10.16-10.12,10.43-5.99-1.7-38.09.8-39.92,0-.17-.07.66-2.33-.58-2.32-1.31.01,2.18,7.04-24.59,2.03-.2-.27,2.47-5.36,2.89-6.08,1.24-2.1,2.23-1.62,2.31-1.74,17.74,5.95,41.22-.74,61.62,1.16,9.14-3.79-2.36-.91-2.02-4.06,3.42,0,7.07-.44,10.41.58Z"/>
          <path class="cls-27" d="M222.01,25.56c-.94,2.47-.96,5.26-2.6,7.53l-13.31.58-2.02-1.16c.35-3.17-2.52-7.44-5.79-6.66.76.71.95,1.64,1.16,2.61-4.53.27-14.31-1.03-15.04,1.16-.37-.07-.79.06-1.16,0-.67-.12-.97-.77-1.45-1.16-5.19,1.48-24.35-.18-18.8-6.95l34.42.58c7.54,4,16.33,2.51,24.59,3.48Z"/>
          <path class="cls-27" d="M266.55,25.56c11.41,11.62-24.62-.03-28.06,5.21-1.62-2.79-14.64.44-15.91-2.61-.17-.42,1.92-3.34-.58-3.19.08-.17-.29-.95.87-1.74,5.44.48,32.33,1.29,34.13,1.74.76.19.92,1.96,1.74,2.32.76-3.15,5.02-1.13,7.81-1.74Z"/>
          <path class="cls-9" d="M279.28,22.66c-.08.12-1.07-.36-2.31,1.74-3.43.09-6.54,4.01-9.26,0,8.83-2.31,15.02-7.01,11.57-1.74Z"/>
          <path class="cls-27" d="M161.26,20.34c-.05,6.85-5.26,7.02-11.28,7.53-12.29,1.05-14.99.26-13.6-7.53,8.29.02,16.59-.01,24.88,0Z"/>
          <path class="cls-6" d="M324.99,48.73l-2.02,2.32-148.98-.58c4.88-.05,16.37-.39,18.8-1.74,7.98,2.79,13.51.08,19.67,0,.21,0,1.46,1.19,4.05,1.16,3.03-.04,6.8-1.12,9.84-1.16,32.87-.47,65.77.35,98.64,0Z"/>
          <path class="cls-10" d="M204.07,32.51c-2.68,6.94-17.15.87-20.83-2.9.37.06.79-.07,1.16,0,5.7,1.02,14.93,6.67,16.2,2.03.52-1.91-1.12-3.02-1.16-3.19-.21-.97-.4-1.89-1.16-2.61,3.27-.78,6.14,3.49,5.79,6.66Z"/>
          <path class="cls-10" d="M199.44,28.45c.04.17,1.68,1.28,1.16,3.19-1.27,4.64-10.5-1.01-16.2-2.03.74-2.19,10.52-.89,15.04-1.16Z"/>
        </g>
      </g>
    </g>
  </g>
</svg>