<?xml version="1.0" encoding="UTF-8"?>
<svg id="Layer_2" data-name="Layer 2" xmlns="http://www.w3.org/2000/svg" viewBox="0 0 260.24 291.26">
  <defs>
    <style>
      .cls-1 {
        stroke-width: 3px;
      }

      .cls-1, .cls-2, .cls-3, .cls-4, .cls-5, .cls-6, .cls-7, .cls-8, .cls-9, .cls-10 {
        stroke-miterlimit: 10;
      }

      .cls-1, .cls-5, .cls-7, .cls-8, .cls-9, .cls-10 {
        fill: none;
      }

      .cls-1, .cls-9 {
        stroke: #525456;
      }

      .cls-2 {
        fill: #e1935f;
      }

      .cls-2, .cls-7 {
        stroke: #fefdd6;
        stroke-width: 2px;
      }

      .cls-3 {
        fill: #ce9772;
      }

      .cls-3, .cls-4 {
        stroke-width: 4px;
      }

      .cls-3, .cls-5, .cls-6 {
        stroke: #331c1b;
      }

      .cls-4 {
        stroke: #422020;
      }

      .cls-4, .cls-11 {
        fill: #d39060;
      }

      .cls-5 {
        stroke-width: 5px;
      }

      .cls-6 {
        fill: #fff7ee;
      }

      .cls-8, .cls-10 {
        stroke: #843a27;
      }

      .cls-10 {
        stroke-width: 7px;
      }

      .cls-12 {
        fill: #fab485;
      }

      .cls-12, .cls-13, .cls-14, .cls-11, .cls-15, .cls-16 {
        stroke-width: 0px;
      }

      .cls-13 {
        fill: #843a27;
      }

      .cls-14 {
        fill: #422020;
      }

      .cls-15 {
        fill: #803921;
      }

      .cls-16 {
        fill: #8c402c;
      }
    </style>
  </defs>
  <g id="Layer_14" data-name="Layer 14">
    <path class="cls-16" d="M244.12,204.77c-19.06-5.49-39.34-7.46-58.98-4.42-4.95.73-9.69,2.2-14.68,2.92-5.06.72-10.13.46-15.14-.11-5.02-.61-9.97-1.92-14.65-3.82-9.19-3.82-17.68-9.14-27.69-10.24-4.86-.6-9.81-.75-14.57.27-4.81,1.04-9.46,2.93-14.19,4.4-14.31,4.54-29.23,7.08-44.18,8.15-9.97.64-19.98.59-29.92-.14,9.97.28,19.94.13,29.85-.84,14.85-1.31,29.55-4.22,43.72-8.82,4.78-1.51,9.4-3.43,14.34-4.53,5.02-1.11,10.18-.98,15.19-.39,10.14,1,19.07,6.47,28.16,10.37,4.54,1.88,9.3,3.17,14.17,3.79,4.87.59,9.84.87,14.67.2,4.88-.69,9.75-2.1,14.68-2.72,19.87-2.72,40.26-.4,59.21,5.93h0Z"/>
    <path class="cls-16" d="M43.12,175.77c-5.15,6-13.92,4.74-15.43-3.65-.82-4.15.09-10.04,4.67-11.61,4.58-.96,8.14,1.87,11.38,4.47,4.86,4.1,7.57,10.7,7.39,16.78-2.27-6.91-6.22-12.46-12.42-15.86-1.5-.84-3.69-1.92-5.21-1.55-.64.19-1.05.8-1.38,1.36-1.28,2.56-1.38,6.11-.17,8.73,2.03,4.36,7.55,3.41,11.18,1.32h0Z"/>
    <polyline class="cls-9" points="255.12 204.59 247.77 210.46 10.12 210.46 3.62 205.31"/>
    <line class="cls-8" x1="145.12" y1="11.77" x2="145.12" y2="26.67"/>
    <line class="cls-10" x1="138.12" y1="12.77" x2="138.12" y2="25.87"/>
  </g>
  <g id="ParkImgOutline">
    <path class="cls-11" d="M151.58,214.79s-.52,54.4,0,66.04-44.44,11.36-43.46,0c-.02-2.36,0-66.04,0-66.04"/>
    <path class="cls-3" d="M107.28,28.27V8.74c0-7.97,42.83-9.97,42.83.03v19.5"/>
    <path class="cls-12" d="M112.11,30.27c1.54-3.17,2.15-6.6,1.18-10.03-.6-2.5-1.55-5.41-.16-7.92.29-.82.44-1.68.53-2.56.13.88.08,1.79-.06,2.68-.98,2.56.03,4.97.65,7.57.99,3.51.13,7.44-2.16,10.25h0Z"/>
    <path class="cls-15" d="M138.5,32.22c-.88-2.83-.31-5.53.54-8.24.31-2.74-.42-5.54.02-8.28.26-1.82.66-3.62,1.47-5.39l.2.02c.67,2.81.62,5.53.08,8.29-.24,1.81-1.12,3.57-1.13,5.42.1,1.84.49,3.69-.06,5.52-.22.9-.46,1.8-.93,2.68l-.2-.02h0Z"/>
    <path class="cls-15" d="M144.96,9.29c1.32,2.65,1.19,5.41.79,8.22.14,2.75,1.31,5.4,1.31,8.18.03,1.84-.07,3.68-.59,5.55h-.2c-1.11-2.65-1.5-5.35-1.41-8.16-.06-1.83.53-3.7.24-5.53-.4-1.79-1.08-3.57-.83-5.46.07-.92.17-1.85.49-2.79,0,0,.2-.01.2-.01h0Z"/>
    <line class="cls-7" x1="109.62" y1="215.27" x2="109.62" y2="282.27"/>
    <line class="cls-1" x1="147.67" y1="215.27" x2="147.67" y2="283.27"/>
    <path class="cls-4" d="M247.62,28.27H12.43l-9.21,9.21c-.37,10.76-.74,21.53-1.11,32.29,1.67,2,3.33,4,5,6-1.61,1.99-3.21,3.97-4.82,5.96v28.35l6.34,6.34-6.64,6.64v29.01l6.48,7.73-6.48,6.08v40.29l6.48,7.93h239.14l10.23-7.93v-38.37l-7.02-7.39,6.85-6.85v-28.48l-7.01-7.01,7.58-7.58v-27.82l-6.82-6.82,6.82-6.23v-31.26l-10.62-10.07Z"/>
    <path class="cls-15" d="M142.72,216.27c1.14,7.98.81,16,.22,24-.04,8,.92,15.99.74,24-.09,5.33-.32,10.67-.97,16h-.2c-.93-7.99-1.12-15.98-.84-24,.06-5.33.78-10.66.62-16-.28-5.33-.82-10.65-.45-16,.12-2.67.29-5.33.67-8,0,0,.2,0,.2,0h0Z"/>
    <path class="cls-5" d="M150.6,214.09s-.52,54.4,0,66.04-44.44,11.36-43.46,0c-.02-2.36,0-66.04,0-66.04"/>
    <path class="cls-16" d="M7.12,75.77s58.5-2.5,244.3.06c5.2-3.56-16.8-1.56,4.7-9.06s-221.44,4.56-235.47,4.53c-14.03-.03-14.46-8.03-16.24-4.53-1.79,3.5-2.29,3-2.29,3l5,6Z"/>
    <path class="cls-16" d="M8.64,116.42c146.98-.14-69.02-7.14,116.48-5.64,82.5-3.5,1.5,2.5,125.54,7.28,17.96,3.22-191.04,5.22-242.02-1.64Z"/>
    <path class="cls-16" d="M8.48,159.79h32.37s55.78-3.77,66.28-2.14,57.39,7.66,68.94,2.14,14.55.48,34.05-5.02c8.5,1.5,11.25,2.52,16.87,2.51s23.83,3.11,23.83,3.11l-242.34-.6Z"/>
    <path class="cls-15" d="M2.12,187.36c28.72-.94,58.56-.98,87.31-.31,55.56.12,111.13-1.63,166.69.31,0,0,0,.2,0,.2-55.56,1.94-111.13.19-166.69.31-17.65.4-37.89.6-55.56.36-10.58-.13-21.17-.3-31.75-.67,0,0,0-.2,0-.2h0Z"/>
    <path class="cls-15" d="M2.62,139.67c20.79-1.05,42.67-1.59,63.51-1.74,9.12.02,22.78.14,31.77.08,31.76-.25,63.52-1.58,95.29-1.27,19.85.22,39.78.16,59.54,2.19,0,0,1.97.27,1.97.27l1.95.46s-.07.19-.07.19l-1.93-.35s-1.97-.16-1.97-.16c-16.45-.89-42.71-.41-59.5-.54-31.76.21-63.52-.57-95.28-.1-20.46.48-43.02,1.32-63.51,1.29-10.59.04-21.18.04-31.77-.13v-.2h0Z"/>
    <path class="cls-15" d="M2.62,52.67c28.72-.94,58.56-.98,87.31-.31,55.56.12,111.13-1.63,166.69.31,0,0,0,.2,0,.2-55.56,1.94-111.13.19-166.69.31-17.65.4-37.89.6-55.56.36-10.58-.13-21.17-.3-31.75-.67,0,0,0-.2,0-.2h0Z"/>
    <path class="cls-15" d="M3.62,96.67c28.72-.94,58.56-.98,87.31-.31,55.56.12,111.13-1.63,166.69.31,0,0,0,.2,0,.2-55.56,1.94-111.13.19-166.69.31-17.65.4-37.89.6-55.56.36-10.58-.13-21.17-.3-31.75-.67,0,0,0-.2,0-.2h0Z"/>
    <path class="cls-12" d="M7.62,106.27c18.74-9.35,40.99-12.17,61.14-5.83,10.02,2.88,19.39,8.06,29.8,9.43,7.75,1.05,15.61-.12,22.94-2.74,12.28-4.48,23.66-11.22,36.2-15.09,20.06-6.43,41.9-5.83,62.12-.44,10.13,2.68,19.89,6.6,29.3,11.18-9.47-4.43-19.27-8.19-29.43-10.71-20.14-5.23-41.85-5.74-61.74.76-12.51,3.91-23.8,10.81-36.14,15.2-7.46,2.63-15.5,3.77-23.37,2.66-10.49-1.43-19.85-6.67-29.88-9.61-20.01-6.35-42.12-3.78-60.95,5.2h0Z"/>
    <path class="cls-14" d="M33.23,172.98c15.54-10.02,36.61-9.08,49.56,4.82,3.83,4.09,7.41,8.75,9.02,14.21,3.38,14.23-26.11-7.87-29.7-10.23,2.94,1.61,32.56,22.37,28.84,10.45-2.39-7.31-7.87-13.41-13.83-18.13-12.57-9.63-30.58-8.93-43.9-1.12h0Z"/>
    <path class="cls-12" d="M5.12,45.77c24.61-7.45,50.22-11.98,75.96-12.57,15.46-.42,30.91.85,46.25,2.56,18.03,2.01,43.45,5.82,61.37,5.83,10.34.28,20.37-2.31,30.59-3.42,10.24-1.14,20.54-1.6,30.83-1.41-15.43-.05-30.84,1.39-45.99,4.32-12.76,2.14-25.76,1.22-38.57.03-5.12-.41-32.69-3.73-38.34-4.36-40.82-5.5-82.55-2.53-122.1,9.01h0Z"/>
    <path class="cls-13" d="M16.12,62.77c29.94-3.33,60.23-3.82,90.23-.94,20,1.8,39.75,5.76,59.74,7.52,29.99,2.48,60.38-1.49,89.03-10.58-28.54,9.63-59.03,13.93-89.1,11.48-20.03-1.67-39.76-5.64-59.75-7.52-29.96-2.92-60.18-2.75-90.15.04h0Z"/>
    <path class="cls-12" d="M39.12,110.77c-3.4,3.18-9.9,4.48-13.1.31-2.77-4.15-.41-10.06,2.03-13.85,6.54-9.81,19.54-6.5,22.07,4.54-3.11-10.08-15.07-13.36-21.25-3.96-2.34,3.54-4.56,8.87-2.22,12.84,2.85,3.95,9.02,2.82,12.47.13h0Z"/>
    <g>
      <path class="cls-11" d="M74.12,174.77c7.03,2.18,11.6,11.35,10,13-1.25,1.29-6.7-1.65-10-5-2.48-2.51-5.1-6.63-4-8,.8-.99,3.28-.22,4,0Z"/>
      <path class="cls-14" d="M74.12,174.77c3.44,1.1,6.28,3.6,8.39,6.48,2.53,3.29,4.43,9.49-2.19,6.52-3.31-1.59-6.17-4.02-8.24-7-2.36-3.29-4.31-8.16,2.04-6.01h0ZM74.12,174.77c-6.3-2.01-4.23,2.63-1.64,5.7,2.21,2.72,5.12,4.88,8.26,6.39,1.13.49,3.61,1.62,3.25-.54-.97-5.03-4.91-9.86-9.86-11.56h0Z"/>
    </g>
    <g>
      <path class="cls-11" d="M50.12,205.77c-2.53.47-10.98,1.71-20-3-6.01-3.14-6.38-9.48-14-15-3.88-2.81-7.62-4.25-10-5"/>
      <path class="cls-14" d="M50.12,205.77c-7.49,1.66-15.91.48-22.29-3.93-2.64-2.09-4.22-5.19-6.14-7.81-2.51-3.55-5.84-6.4-9.64-8.51-1.88-1.1-3.88-1.98-5.93-2.75,4.24,1.13,8.27,3.11,11.74,5.88,4.46,3.32,6.49,8.83,10.56,12.44,6.21,4.33,14.23,5.61,21.69,4.68h0Z"/>
    </g>
    <path class="cls-12" d="M255.12,199.77c-45.45-13.86-92.03-23.88-139-30.98-10.37-1.28-21.11-2.29-31.31.46-10.16,2.81-19.94,7.17-30.4,8.94-15.73,2.88-32.23-1.45-45.29-10.42,13.19,8.76,29.55,12.72,45.19,9.84,10.43-1.82,20.13-6.21,30.3-9.09,10.31-2.84,21.16-1.88,31.63-.65,47,7.05,93.62,17.32,138.88,31.89h0Z"/>
    <path class="cls-12" d="M26.12,154.77c21.77-9.38,46.45-13.34,69.82-8.32,9.28,2.11,18.15,5.65,27.55,7.2,9.31,1.55,18.84,2.31,28.27,1.66,4.72-.34,9.42-.97,14.13-1.59,18.83-2.58,37.77-4.45,56.74-5.68,9.49-.59,18.98-1.01,28.48-1.28-9.49.43-18.98,1.02-28.45,1.77-23.73,1.54-47.22,5.11-70.84,7.73-9.53.7-19.11-.07-28.51-1.68-9.4-1.58-18.32-5.15-27.57-7.29-23.23-5.1-47.74-1.47-69.63,7.47h0Z"/>
    <path class="cls-13" d="M12.12,127.77c48.12-3.26,96.33-1.38,144.45.45,28.88.66,57.8-.58,86.55-3.45-19.14,2.27-38.38,3.73-57.65,4.26-28.92.91-57.8-1.06-86.69-1.9-28.88-.77-57.79-.52-86.67.64h0Z"/>
    <path class="cls-13" d="M246.12,178.77c-42.47-9.01-87.01-11.38-129.42-.94-29.55,7.35-68.41,23.99-97.15,7.13-4.38-2.67-8.28-6.14-11.43-10.19,6.39,8.05,15.79,13.37,25.81,15.4,25.3,4.94,50.97-4.54,75.09-11.31,34.64-9.85,71.35-10.79,106.87-5.74,9.65,1.35,20.72,3.52,30.23,5.65h0Z"/>
    <path class="cls-12" d="M23.12,206.77c22.04,1.84,44.66,3.32,66.73,3.23,17.27.01,34.69-.86,51.75-3.53,12.17-1.91,24.31-4.84,35.48-10.07,6.72-3.16,12.84-7.5,19.71-10.38,18.46-8.4,39.92-9.83,56.32,3.75-5.84-4.6-12.76-7.76-20.08-9.03-12.23-2.05-24.77.88-35.93,5.98-6.22,2.75-11.95,6.51-17.96,9.69-11.73,5.75-24.56,9.02-37.4,11.05-39.27,5.82-79.32,3.24-118.64-.69h0Z"/>
    <polyline class="cls-7" points="5.12 65.38 5.62 38.27 14.62 30.27 246.12 30.27 256.12 39.34"/>
    <polyline class="cls-7" points="6.12 82.07 10.12 75.83 247.48 77.12 255.12 82.98"/>
    <polyline class="cls-7" points="5.12 124.77 12.12 118.79 246.12 121.02 255.12 125.42"/>
    <polyline class="cls-7" points="5.12 167.1 10.12 162.07 247.18 162.07 253.12 167.1"/>
    <polyline class="cls-1" points="255.12 169.87 255.12 202.97 247.77 210.46 10.12 210.46 5.12 204.59"/>
    <ellipse class="cls-2" cx="128.62" cy="7.77" rx="19" ry="3"/>
    <polyline class="cls-1" points="255.12 127.35 255.12 152.6 247.79 159.89 10.12 158.82 5.12 151.09"/>
    <polyline class="cls-1" points="5.12 107.48 10.12 115.33 246.12 117.87 255.12 109.7 255.12 87.71"/>
    <polyline class="cls-1" points="255.12 41.79 255.12 68.49 246.12 73.81 6.12 73.81 4.41 66.77"/>
    <path class="cls-13" d="M140.12,7.77c-7.42-.65-14.96-.93-22.34.14-.55.15-.13.14-.23-.25-.06-.14-.09-.13-.08-.13,0,0,.07.04.14.07,3.38.92,6.98,1.22,10.51,1.17-3.54.51-7.73.6-11.16-.51-2.57-2.44,13.45-1.98,14.64-1.79,2.87.22,5.73.63,8.52,1.3h0Z"/>
    <path class="cls-15" d="M135.52,283.27c-1.14-8.36-.81-16.75-.22-25.12.04-8.38-.92-16.74-.74-25.13.08-5.58.34-11.17.97-16.75h.2c.93,8.37,1.12,16.73.84,25.12-.06,5.58-.78,11.16-.62,16.75.28,5.58.82,11.16.45,16.75-.12,2.79-.29,5.58-.67,8.37,0,0-.2,0-.2,0h0Z"/>
    <path class="cls-15" d="M224.07,128.4c1.14,8.48.81,17,.22,25.5-.04,8.5.92,16.99.74,25.5-.08,5.67-.34,11.33-.97,17,0,0-.2,0-.2,0-.93-8.5-1.12-16.98-.84-25.5.06-5.66.78-11.33.62-17-.28-5.66-.82-11.32-.45-17,.12-2.83.29-5.67.67-8.5h.2Z"/>
    <path class="cls-12" d="M111.93,215.27c3.64,10.48,4.53,21.83,3.09,32.81-.64,5.49-1.55,10.95-1.67,16.41-.11,2.77.56,5.44.83,8.18.25,2.76.35,5.53.21,8.29-.08-2.76-.28-5.51-.69-8.23-.37-2.74-1.13-5.46-1.11-8.24-.1-4.83.95-11.68,1.45-16.53,1.53-10.92.75-22.05-2.09-32.7h0Z"/>
    <path class="cls-12" d="M121.94,281.01c-3.22-10.61-3.66-22-1.77-32.91.86-5.46,1.99-10.87,2.32-16.33.22-2.76-.35-5.46-.5-8.21-.14-2.77-.13-5.54.13-8.29-.03,2.76.06,5.52.36,8.25.26,2.75.91,5.5.78,8.27-.09,4.83-1.41,11.63-2.11,16.46-1.97,10.85-1.63,22,.79,32.75h0Z"/>
    <path class="cls-12" d="M222.32,129.63c3.64,10.48,4.53,21.83,3.09,32.81-.64,5.49-1.55,10.95-1.67,16.41-.11,2.77.57,5.44.83,8.18.25,2.76.35,5.53.21,8.29-.08-2.76-.28-5.51-.69-8.23-.37-2.74-1.13-5.46-1.11-8.24-.1-4.83.95-11.68,1.45-16.53,1.53-10.92.75-22.05-2.09-32.7h0Z"/>
    <path class="cls-14" d="M135.89,214.71c7.03,7.02,11,17.03,10.92,26.98.08,6.88-4.27,12.55-7.2,18.38-4.61,8.73-5.86,18.92-4.33,28.63-1.43-6.44-1.41-13.22.06-19.7,1.39-6.52,5.12-12.23,8.07-18.07,3.27-5.84,2.84-12.65,1.42-18.94-1.47-6.38-4.61-12.35-8.94-17.28h0Z"/>
  </g>
  <g id="sign_image_and_title" data-name="sign image and title">
    <rect class="cls-6" x="61.12" y="33.77" width="142" height="33" rx="4.28" ry="4.28"/>
    <rect class="cls-6" x="40.12" y="76.77" width="184" height="125" rx="5.17" ry="5.17"/>
  </g>
</svg>